<?xml version="1.0" encoding="UTF-8"?>
<svg id="Layer_1" data-name="Layer 1" xmlns="http://www.w3.org/2000/svg" viewBox="0 0 2500 2870.86">
  <defs>
    <style>
      .cls-1 {
        fill: #2d2a24;
      }

      .cls-2 {
        fill: #4a4540;
      }
    </style>
  </defs>
  <path class="cls-1" d="M0,0h5263.24v2870.86H0V0M4207.8,590.29c1.07,12.94,11.1-6.32,0,0M4199.45,651.38c-3.56,9.99-10.83,17.84-16.23,26.76-3.83,6.74,3.6,12.59,6.51,18.03-8.77,9.76-8.04,23.12-8.61,35.33-2.6,5.97-8.15,11.79-6.43,18.76,7.43,23.77.84,48.69,3.67,73.07,1.8,11.06-6.32,19.68-9.8,29.44-5.01,15.12-7.54,30.89-10.14,46.55-5.44,9.34-17.11,15.2-17.38,27.06-.08,15.69-15.81,25.3-30.01,26.07-12.78,1.99-20.59-10.49-31.08-15.12,5.36-6.43,10.91-15.96.42-20.98-4.52,6.55-2.79,14.51-2.6,21.9-8.42-7.23-13.86-17.15-22.05-24.42-14.39-5.59-30.81-5.78-43.87-14.62-14.05-9.57-26.79-20.86-40.61-30.74-7.81-5.05-16.04-10.3-25.76-9.19-6.47-6.93-11.98-14.62-16.5-22.89-14.89-8.31-26.87-21.36-44.21-24.8,11.45-14.58,18.79-31.66,28.79-47.01,4.06-.54,12.17-1.57,16.23-2.07-12.36-6.35-23.16-15.23-24.19-30.05,7.12,1.49,14.2,3.45,21.28,5.47l2.45-.92c5.51-6.78,11.1-13.51,16.8-20.13-1.49-1.91-4.48-5.74-5.97-7.62,5.05-4.56,10.68-8.46,16.19-12.56-2.99-4.86-3.9-12.1-9.57-14.47-5.67.31-11.25,1.49-16.8,2.18,3.75-2.3,7.54-4.52,11.41-6.66-3.18-3.48-6.24-7-9.15-10.6,4.4-5.47,9.34-10.64,13.7-16.23-15.92,4.13-22.24,22.78-38.97,25.8,1.68,5.55,3.29,11.18,4.82,16.84,2.87-2.49,6.32-4.63,8.84-7.69-1.65-.96-4.9-2.91-6.55-3.87,6.24-3.83,12.02-8.11,18.37-11.87-1.99,3.06-6.01,9.22-8.04,12.33-1.76,13.51,17.49,8.23,25.26,6.62-6.62,6.89-13.09,14.01-17.11,22.74,1.19,1.84,3.6,5.51,4.78,7.31-4.86,4.25-9.61,8.5-14.47,12.71-.11-3.06-.42-9.15-.57-12.21-8.34,3.25-16.73,6.58-23.43,12.67,3.71,9.38,6.12,19.33,7.69,29.32-6.16,17.3-18.34,31.35-28.29,46.47-.61,9.84,11.18,11.56,17.53,16,19.75,9.57,33.88,26.72,48.69,42.34,8.08.15,15.89,2.18,23.23,5.67-1.57,37.17-.38,74.37-.69,111.58.19,134.36-.69,268.75-.19,403.11-123.29-.19-246.59.08-369.88-.04-.5-190.85.23-381.71-.19-572.6,7.27,1.3,14.66,2.64,22.01,4.06,2.68,5.4,3.37,13.17,10.6,14.58.84-7.58.69-15.23.88-22.85-7.62-10.34-21.24-16.57-24.5-29.63,6.16-9.99,18.79-16.8,14.32-30.66,5.36-3.29,13.44-4.25,16.15-10.68.73-5.89.69-11.9,1.68-17.76,4.02-4.1,8.54-7.66,12.9-11.41,3.9-9.49,9.49-18.11,14.28-27.18,1.53,1.26,4.56,3.75,6.09,5.01,7.16-4.78,14.28-9.61,21.67-14.09,5.82,4.44,11.22,9.88,18.14,12.71,9.34,3.41,19.22-.54,28.21-3.33,5.97-5.67,11.06-12.17,16.96-17.91-4.33-11.98-9.8-23.66-21.05-30.58-4.86-1.15-9.68-2.18-14.24-3.98,1.26-12.82,25.03-11.56,17.19,3.75,3.67-.34,11.06-.96,14.74-1.26,1.26-1.22,3.83-3.71,5.09-4.94-.11,2.6-.38,7.81-.5,10.41,9.26,3.1,18.3,7.27,28.02,9.03,12.98,5.89,25.26,13.28,39.01,17.42,16.57,7.12,35.9,8.38,49.57,21.17,12.78.61,17.76-18.6,32.42-14.55,3.98-4.71,8.12-9.3,12.33-13.86,3.45-3.1,6.66-6.51,9.68-10.07-10.37,5.09-19.83,11.9-30.39,16.61-10.72,4.9-20.17,13.4-32.54,13.17-1.95-4.21-3.87-8.46-5.7-12.67-9.53,5.51-17.88,2.83-24-5.63-6.43.96-11.9-1.53-16.61-5.63-1.57-.15-4.67-.42-6.2-.54-4.86-2.37-9.76-4.56-14.58-6.78-9.84-6.35-21.4-8.84-32.46-12.02-.69-4.48-1.49-8.96-2.3-13.36-5.51,1.57-10.72,3.94-16.19,5.4-3.18-4.36-5.7-9.07-8.31-13.7-12.82.34-29.28,7.58-23.27,23.39,8.23,4.78,18.03,6.66,25.72,12.48,5.63,6.81,3.06,15.77,1.57,23.54-9.95,3.14-19.87,6.39-29.86,9.15-3.79-2.87-7.54-5.74-11.22-8.57-2.22.11-6.7.42-8.92.57-3.9-2.53-7.77-5.01-11.6-7.46-1.3,2.99-3.9,8.96-5.21,11.94-4.78-.57-9.53-1.15-14.24-1.68-6.55,10.11-13.63,19.87-21.09,29.32-5.78,9.45-15.96,18.07-13.32,30.28-13.4,5.59-12.82,21.36-21.21,31.16-3.48,5.36-9.57,10.83-6.93,17.91,3.52,7.62,9.38,13.74,14.78,20.06-7.89.08-15.66.38-23.43.84-15.85-4.59-33.76-7.23-47.89,3.33-8.84-24.92-32.5-42.3-56.69-50.72-5.21,4.67-10.37,11.41-17.99,7.27-5.32,10.87-20.82,1.38-23.16,15.24-2.49-.61-7.39-1.84-9.88-2.45-.61,5.24-1.19,10.49-1.68,15.73,5.4-1,10.87-1.84,16.42-2.49,2.03-4.29,4.02-8.61,6.12-12.9,5.21,1.15,10.45,2.22,15.77,3.18,5.21-5.24,9.91-11.41,17.03-14.32,20.1,6.24,37.47,22.13,46.85,40.77-2.1,14.51-8.23,28.21-11.71,42.45,2.34,2.03,4.75,4.02,7.2,6.05,1.76-6.47,3.48-12.98,4.86-19.56,2.83-7.23,4.36-15.04,8.31-21.78,5.78-5.24,13.89-5.82,21.24-7.16.54,6.05.96,12.1,1.3,18.22,1.65-.08,5.01-.19,6.7-.27,1.07-5.32,2.14-10.68,3.29-15.96,5.09,1.11,10.22,2.22,15.43,3.37-1.42,283.79,1.03,567.63-.92,851.38-30.58,7.89-57.76,25.61-88.92,31.5-13.17.8-25.95-3.98-39.12-3.79-27.33,15.69-53.13,34.41-81.99,47.39-10.72,11.87-11.37,30.09-22.58,42.03-6.43.69-12.9.88-19.25,1.99-6.89-2.11-13.86-.88-20.36,1.8-9-3.22-18.22-.54-27.25.42-29.4-12.06-60.1,3.02-89.95,4.48-9.19,5.47-12.98,16.46-19.29,24.65-10.07.46-21.32-.96-29.86,5.51-10.03,7.39-15.43,22.47-29.74,22.43-15.12,1.53-30.16,6.81-45.44,4.67-15.62-4.75-31.23-10.49-45.17-19.06-12.79-10.76-23.01-27.14-41.88-26.64-.31-9.34-.54-18.68-1.03-27.98,5.9-.61,13.89,3.67,18.18-2.45,8.73-8.88,5.78-22.24,7.31-33.42,2.22-13.86-8.69-27.18-2.18-40.8,8.23-25.45-11.64-46.62-23.81-66.76-8.27-11.29-5.28-25.68-7.96-38.55-2.87-13.67-5.78-27.37-6.01-41.38-5.59-20.98-21.63-36.75-33.49-54.24.73-17.38-5.05-33.84-9.91-50.26-5.67-13.36-20.82-24.42-22.24-37.9,5.74-1.03,11.6-1.53,17.45-2.49,3.87-6.58,7.46-13.28,10.76-20.17-6.47-19.56-18.99-36.21-27.37-54.89-4.75-10.49-13.63-20.63-11.56-32.88,4.25-13.01,10.99-25.15,14.2-38.51,2.6-14.05-12.78-26.14-5.78-40.04,4.25-11.25,4.36-24.31,12.59-33.8,1.91,9.72,2.83,19.64,3.25,29.55,1.65.46,4.94,1.34,6.58,1.8,1.3-6.81-.15-14.81,3.98-20.75,6.66-5.05,14.55-8.34,20.67-14.16,9.8-9.84,24.65-12.63,33.3-23.89,6.2-7.89,16.5-10.72,23.04-18.18,12.78-17.84,37.21-9.15,55.58-9.88,12.33-12.1,30.85-11.9,44.1-22.55,17.34-8.08,36.25-12.4,53.28-21.36,27.18-6.24,55.27-13.24,78.2-30.05,14.81-12.02,13.63-33.45,24.23-48.38,6.62-13.01,20.13-21.59,25.11-35.41-3.33-13.74-13.86-27.45-6.62-41.91,7.62-12.44,17.42-24.08,29.36-32.57,9.19,17.26,16.92,35.41,27.79,51.71.96-1.99,2.91-6.01,3.87-8-5.93-13.21-14.7-25-20.33-38.32-1.53-8.42-1.61-17.72-9.07-23.31-7.04,11.56-17.38,20.63-24.38,32.23-3.25,1.57-6.43,3.14-9.57,4.75-2.72,8.08-5.21,16.27-6.12,24.8-1.26,11.79,6.93,21.93,7.58,33.45-12.98,13.9-25.65,28.75-31.89,47.08-4.17,9.99-5.4,22.39-14.58,29.44-24.15,18.22-54.47,24.08-83.37,30.43-7.85-3.29-12.98.96-16.08,8.08-11.83,4.67-25.26,5.55-35.68,13.24-11.25,8.57-25.49,11.29-37.36,18.83-12.13,7.08-25.84-8.8-36.29,1.3-6.24,1.8-14.97-.08-18.18,6.93-5.63,11.25-19.33,13.55-26.41,23.46-7.01,9.15-18.64,11.9-28.59,16.42-5.78,9.07-14.32,15.46-23.92,19.98-2.07-4.17-4.13-8.31-6.12-12.44-1.8-.23-5.4-.69-7.2-.96-13.32,11.37-13.01,29.82-19.14,44.98-.96,12.25,10.3,23.43,6.85,36.1-2.72,18.6-18.56,35.29-11.79,54.81,9.19,20.71,21.93,39.62,32.34,59.71,4.13,6.39,3.98,14.09,4.02,21.44-8.04-9.07-13.13-22.35-26.79-24.19,6.05,11.71,22.32,20.78,19.06,35.68-2.53-2.18-7.58-6.51-10.07-8.69.69-2.11,2.03-6.32,2.72-8.42-14.58-5.67-12.94-24.65-24.19-34.18-1.07,15.77,8.77,28.94,16.57,41.68-.69,1.19-2.07,3.52-2.76,4.67-.84-.08-2.6-.27-3.48-.38-10.79-15.04-20.13-31.31-21.97-50.14-4.56,4.98-12.02,10.64-5.97,17.76,16.27,24.46,31.81,49.49,48.42,73.76,8.54,17.61,12.78,37.17,13.21,56.65,12.75,18.76,32.38,35.87,33.3,60.02.88,11.67,4.1,22.97,6.47,34.45,2.34,11.52.08,24.15,6.09,34.83,10.26,19.94,27.9,37.32,29.47,60.82-1.68,5.4-4.33,10.45-6.66,15.58,6.24,19.67,6.47,40.04,2.72,60.25-5.51,11.94-16.04,1.15-23.08-3.02.19,15.73.31,31.5,1.26,47.2,7.73,1.88,15.69,2.95,23.27,5.67,9.68,7.04,16.11,17.95,26.79,23.81,13.7,7.08,28.17,12.78,43.25,16.38,13.67,1.88,27.41-1.53,41-2.99,1.42,1.65,4.25,4.94,5.67,6.62,12.98-8.61,23.16-20.4,32.96-32.34,10.76-6.2,24.69-2.22,35.68-8.54.61-4.59,1.45-9.15,2.56-13.59,4.4-8.27,14.58-6.62,22.39-8.31,22.85-3.87,47.43-11.87,70.09-3.1,6.66,3.29,13.44-1.76,20.02-2.91,3.1,2.6,6.2,5.28,9.38,7.96,3.6-2.64,7.27-5.21,11.02-7.69,10.34,5.93,22.7,2.72,33.26-.57,11.41-12.06,15.31-28.59,21.59-43.48,28.33-12.9,54.43-30.24,80.31-47.54,15.27,2.22,30.89,5.4,46.35,2.72,28.21-6.2,53.17-21.74,80.73-29.7,28.06,2.64,56.19.5,83.98-3.9,13.36-2.22,20.17,12.1,30.12,18.26,13.67,10.6,33.15,4.1,47.16,13.78,11.45,7.54,25.07,10.11,37.4,15.85,11.14,3.33,3.18-11.9-3.14-11.18-13.9.84-25.03-7.62-36.86-13.24-12.44-6.81-28.29-1.68-39.81-10.68-11.67-6.51-20.29-21.9-35.22-19.9-21.63,2.95-43.29,6.39-65.11,6.78-5.86,1.19-13.21-1.76-12.21-8.77-.23-88.65-.31-177.3-.23-265.92,169.69.04,339.37.31,509.06.19-.15,68.02-1.57,136.04-1.72,204.1-.92,99.64.57,199.35-1.65,298.99.38,47.31-2.11,94.7,1.23,141.94-7.85-9.11-14.85-18.87-23.5-27.18-3.02,3.22-6.01,6.47-8.96,9.76-19.02-17.15-34.14-38.7-43.56-62.39,2.37-8,8.27-15.69,5.44-24.42-2.45-16.8-13.51-30.24-19.83-45.59-3.18-1.99-9.53-5.93-12.71-7.92-.42,2.76-1.22,8.23-1.65,10.95,4.86,3.67,11.48,5.63,14.24,11.67,8.65,15.31,19.94,36.4,5.51,51.83,9.72,27.75,26.76,52.52,50.11,70.55,4.98-.57,9.99-1.26,15.04-2.14,5.63,6.93,10.64,14.47,16.92,20.94,4.78-1.45,9.11-3.9,13.86-5.55,5.55,7,9.84,14.97,15.04,22.28-1.57-7.73-3.75-15.39-5.74-22.97,25.61-.23,39.5,26.95,62.66,32.77,10.72-7.58,19.67-17.61,31.31-24,10.37.88,20.59,3.1,31.01,4.29,1.72,15.16,17.3,24.15,31.54,18.87,17.19,5.7,24.61,22.7,34.56,36.17,2.03-.61,6.12-1.84,8.15-2.41-.08-9.8-4.48-19.41-1-29.05,13.13-4.33,25.84-10.18,37.4-17.8,11.06-10.87,22.39-21.7,35.83-29.67,9.91-6.78,22.28-7.31,33.34-11.33,20.98-4.52,48.34,1.15,62.05-19.83,7.77-33.11,10.95-68.1,27.48-98.57,8.08-13.97,15.43-28.4,21.01-43.52,4.63-2.79,9.68-5.17,13.82-8.84,2.37-11.33,1.3-23.73,7.54-33.99,8.19-14.05,16.69-27.98,23.96-42.6,6.62-13.51,21.24-19.22,32.42-28.06,11.71-15.85,19.83-33.99,29.44-51.1,3.1-6.05,7.01-11.98,7.73-18.91,2.79-37.36,15.16-73.19,28.94-107.71,2.83-32.15-2.87-64.96-11.9-95.81,2.95-23.43,10.07-46.7,4.59-70.36,6.74-8.11,10.56-18.64,4.1-28.13,6.51-4.25,8.69-17-2.03-15.2-4.21,7-6.66,14.85-9.57,22.35,3.14.8,9.42,2.45,12.55,3.25-4.17,3.87-6.35,11.22-12.86,11.52-.65-3.02-1.99-9.11-2.64-12.17-19.29-23.62-31.04-53.02-54.16-73.53-8.77-9.72-21.86-13.47-31.35-22.28-2.07-23.23,6.35-53.9-15.46-69.97.88,6.81,3.14,13.44,5.05,20.02,3.52,6.35,4.56,13.47,3.98,20.67-1.19,16.84,5.36,32.84,6.7,49.46,2.64-1.72,5.36-3.48,8.11-5.21,2.26,1.07,6.78,3.18,9.03,4.21,14.35,14.51,28.4,29.32,38.05,47.54,14.24,9.84,14.39,29.67,27.33,41.03,18.68,26.99,2.33,58.99.5,88.23-4.78,7.54-4.9,21.59-17.07,19.56-10.53,2.56-22.39-5.97-31.27,3.02-11.48,5.24-16,17.38-21.55,27.71-7.89,1.11-15.66,2.6-23.01,5.59-6.74-6.35-14.74-16.65-25.19-11.37-8.5,6.85-14.43,16.23-22.55,23.46-7.35,1.03-14.78-.54-22.05.61-7.58,3.48-12.9,10.22-19.6,14.97-71.27-.73-142.62-.96-213.94-.88-2.22-6.16-4.36-12.25-6.43-18.37-50.37-.92-100.71-.65-151.08-1.3-1.22-50.99,2.91-101.82,1.99-152.73-46.74-1-93.51-.23-140.25-.65.34-122.83.5-245.63.65-368.46.77-46.51-1.42-93.13,1.03-139.6,14.13,9.15,26.91,20.25,41.15,29.28,12.67,8.46,29.21,6.51,42.26,14.01,12.33,13.59,25.84,26.49,42.14,35.29,13.05,4.21,27.68-.61,38.2-8.8,11.41-8.73,7.81-25.91,18.41-35.45,16.11-16.11,10.37-41.15,20.13-60.33,3.18-7.16,9.3-13.63,8.84-21.93-.31-19.22,0-38.39,1.15-57.53.96-11.41-8.46-22.89-1.42-33.68,5.59-12.56,5.59-26.49,6.55-39.92,5.89-.46,11.94-.61,17.84-1.8,3.75-10.72-11.79-12.55-18.49-16.19,18.26-21.74,22.09-50.37,30.7-76.4,3.71.11,11.18.31,14.89.42,4.21,12.63,1.84,26.79,10.33,37.97-.11,8.54-.96,17.15.31,25.61,1.57,7.96,10.45,10.41,16.84,13.44-.61,9.34,2.1,18.14,7.46,25.8-.34,26.87,2.6,54.81,14.12,79.35,5.05,11.18,20.98,7.35,27.25-.8,15.08,14.78,25.61,33.91,43.22,46.24-1.65,6.35-4.55,12.71-2.87,19.41,2.33,16.92,2.68,33.99,3.52,51.02-.15,10.3,8.73,16.88,14.32,24.46,9.11,10.26,8.88,24.73,13.59,37.01,6.09,14.51-3.44,28.94-2.6,43.6,4.63,6.05,10.91,10.64,15.5,16.77.77,6.89-3.87,16.23,3.56,20.82,12.06,7.89,25.91,13.59,34.64,25.76,17.72-.38,22.55,18.3,29.63,30.85,2.99-1,8.92-3.02,11.87-4.06,5.55,3.48,11.25,6.93,16.42,11.14.08,6.32-.99,12.63-.88,19.02,3.48,5.55,10.26,7.89,14.7,12.67,9.38,18.34,19.48,36.9,22.09,57.72,3.06,11.68,1.57,26.83,13.28,34.11-4.44-24.84-10.22-49.53-18.37-73.42-2.68-6.78-11.22-11.45-6.58-19.64-5.86-5.55-12.33-10.41-18.79-15.16,3.02-3.98,6.35-7.73,9.34-11.79-3.9-6.39-8.99-11.9-13.7-17.65-.54,1.91-1.61,5.7-2.14,7.58-6.74-5.86-13.47-13.24-23.47-10.95,1.23-1.91,3.67-5.7,4.9-7.58-12.71,2.14-17.95-11.94-26.91-17.88,1.38-4.33,2.91-8.61,3.94-13.05-5.44-1.11-10.83,0-16.12.88,2.26,4.21,4.56,8.46,6.93,12.67-10.34-11.87-23.96-19.64-38.01-26.26,1.15-9.11.73-18.3-3.52-26.6,4.29-5.63,5.28-12.06,2.41-18.53-2.49,6.43-4.79,12.98-6.97,19.52-8.61-6.12-7.12-15.43-4.21-24.04,5.05-16.84-1.91-33.57-5.67-49.84-3.33-13.67-17-21.59-21.9-34.22-.65-24.54-7.12-49.11-2.6-73.57,3.98-11.02-12.44-9.99-14.35-18.83-2.14-11.98-17.15-12.98-19.71-25-1.61-.84-4.78-2.53-6.39-3.37-2.64-3.02-5.32-5.97-8.04-8.84-7.85,2.11-15.66,13.13-23.31,5.47-8.73-25.88-12.17-53.44-11.67-80.69-6.66-7.39-8.5-16.5-7.43-26.22-5.28-2.49-10.68-4.59-15.62-7.62.38-11.33.8-22.58-4.17-33.15-1.15-15.04-5.7-29.44-14.58-41.8-2.83-2.91-6.09-5.09-9.76-6.55-15.16,18.14-17.53,42.53-25.84,63.89M1947.21,603.11c-7.96,12.75-8.57,28.48-14.47,42.14-4.1,13.74-13.97,24.38-21.51,36.21,4.36,5.36,8.88,10.6,13.51,15.77-4.52,4.55-8.92,9.11-13.28,13.78,1.45,10.56-.73,20.82-4.52,30.62-5.89,9.22.69,18.56,2.26,27.94.38,14.05-5.28,28.06-1.76,42.07.84,6.28,3.33,13.05.11,19.1-5.82,12.82-8.77,26.79-15.46,39.27-5.44,9-2.22,19.94-3.94,29.86-3.79,7.08-10.22,12.33-14.51,19.06-2.11,6.93-2.45,14.24-4.17,21.24-13.67,11.94-35.79,20.17-52.56,10.03-11.48-9.76-20.82-21.78-31.77-32.12,9.38-9.76,21.24-16.5,31.5-25.23-9.45.19-20.52-1.84-28.36,4.78-6.24,4.67-7.89,12.78-11.1,19.45-14.58-4.25-29.4-9.38-40.73-19.87-8.54-8.34-18.26-15.27-28.94-20.63-1.99-3.79-3.98-7.58-6.05-11.29-4.48,23.89-2.91,48.23-2.87,72.42-.31,150.2-.69,300.37-1.26,450.57,46.24.31,92.36,2.41,138.64,1.8-.65,50.14.04,100.29-.69,150.43,51.1.73,102.24-.73,153.34.88.38,6.28.61,12.56.96,18.91,56.46-.15,112.96-.04,169.42.11,16.42.08,33.07-1.19,49.34,1.88,6.58-6.35,12.67-14.01,21.51-17.23,7.16-.54,14.12,1.76,21.21,2.87,7.66-8.96,13.21-21.17,24.42-26.07,9.72-3.52,16.65,4.06,22.01,10.95,6.32-1.57,12.67-3.18,19.1-4.59,4.78-5.28,9.57-10.53,14.32-15.85,6.16-6.39,13.05-12.02,20.25-17.23,11.48,1.03,22.97.11,34.45-.42.61-3.14,1.76-9.38,2.34-12.52,2.07.73,6.16,2.14,8.19,2.83,1.84-1.8,5.47-5.44,7.31-7.27-10.87-27.22,6.7-55.62-.04-83.48,4.78-7.16,6.89-15.43,8.42-23.77.69-6.35,1.72-12.63,2.76-18.91-1.68.54-5.05,1.53-6.74,2.07-2.37,11.18-4.52,22.85-11.18,32.42-9.68-11.98-15.46-26.34-23.5-39.31-1.84-.69-5.55-2.03-7.43-2.68-3.44-15.31-17.57-23.08-24.54-36.17-1.61-.19-4.86-.57-6.47-.77-8.08-7.16-16.23-14.24-24.27-21.4-2.22-16,3.6-31.43,2.64-47.31-3.67-5.05-6.51-10.53-8.57-16.34-1.49.54-4.4,1.53-5.89,2.07-6.05-5.55-12.48-10.72-18.79-15.92-.08,7.66-.27,15.31-.54,23.01-9.68-9.84-15.46-23.16-15.27-37.01.34-10.18-6.01-18.6-9.45-27.71-5.05-4.63-10.79-8.73-14.62-14.43.27-5.32,1.42-10.49,2.37-15.66-6.01-3.37-12.06-6.62-17.61-10.68.92-5.36,3.52-9.72,7.77-13.13.23-1.15.61-3.45.8-4.56-4.44-1.8-8.92-3.6-13.32-5.32-2.18,1.34-6.55,3.98-8.73,5.32-3.25-3.52-6.35-7.12-9.38-10.76-8.19-3.41-12.63-10.79-16.19-18.45-9.76-4.67-13.93-14.05-15.2-24.31-5.09,1.68-10.26,2.99-15.5,3.83-16.65-6.12-27.64-20.56-37.55-34.45,4.1-.11,12.29-.31,16.34-.42-6.51-3.48-13.17-6.51-20.06-9.07.92-19.83,10.37-41.99-2.03-59.98-3.87-6.24-1.07-13.78-1.19-20.56-7.73-9.19-16.19-17.95-22.05-28.52-2.99-22.51-2.95-45.51-7.23-67.91,1.42-4.25,3.06-8.46,4.1-12.86-4.94-3.29-10.18-6.01-15.31-8.92-.04-2.45-.08-7.35-.08-9.8-3.64-1.23-7.2-2.41-10.76-3.64-4.56-7.39-9.95-14.16-15.39-20.9-4.36.84-8.77,1.61-13.13,2.37-3.87,3.41-7.77,6.78-11.71,10.07-9.88-13.97-14.32-30.43-13.82-47.46,1.19-16.11-7.46-31.85-2.41-47.69-2.11-2.79-4.21-5.55-6.28-8.27-.31-1.72-.84-5.21-1.15-6.97-2.53-4.75-4.82-9.57-7.12-14.43-3.41-1.61-6.81-3.25-10.18-4.9.5-15.2-3.87-29.9-5.51-44.86-2.76-5.74-5.4-11.52-7.92-17.3-5.82.19-11.67-.08-17.34,1.15M1475.89,632.2c-1.91-4.02-3.83-8.04-5.74-12.06-9.72.69-19.45,1.53-29.09,2.68,4.17,5.4,7.5,11.98,13.51,15.58,10.6.42,21.55.65,30.09,7.85-1.15,9.84.38,20.44-3.9,29.63-5.67.73-11.37.73-17.03.99-1.53,1.68-4.63,5.05-6.16,6.74-17.03,2.22-32.92-6.12-45.67-16.84-4.29,6.74-8.31,13.67-12.78,20.29-3.52-1.03-10.64-3.06-14.2-4.06-1.53,8.96-4.13,18.11-13.24,22.05.11,4.67.08,9.34-.11,14.01-3.98,6.62-11.52,8.73-18.18,11.56-.96,8.15-.57,16.34.61,24.46-14.55,3.25-19.48,17.3-24.15,29.63,8.96,16.12,27.37,27.68,28.29,47.54-1.8.23-5.36.69-7.12.96-2.87-13.21-14.93-21.78-28.25-20.52.31,191.66,0,383.32.04,575.01,89.84.46,179.68.19,269.55.88,33.88,3.64,67.79-1.8,101.78-.15.54-81.3-1.72-162.72,2.18-243.91-.54-61.24-.11-122.49-.04-183.7.38-31.35-1.3-62.7,1.11-93.97-7.89-2.56-16-4.17-24.15-5.24-5.89-16.61-24-22.16-34.64-34.87-6.12-8.77-22.51-6.93-23.46-19.1,15.66-14.32,19.83-37.05,37.51-49.46-4.63-7.08-8.77-15.04-17.53-17.72,2.11-3.94,4.36-7.77,6.74-11.56,5.63-1.61,10.07,2.99,15.08,4.67,5.36-3.37,9.99-7.77,15.04-11.6-.65-2.72-1.3-5.44-1.91-8.15,4.78-9.49,9.68-18.95,17.23-26.6-2.56-1.19-7.66-3.6-10.18-4.82-.96-1.53-2.87-4.59-3.83-6.12-3.18-.42-9.57-1.23-12.75-1.65,4.4-6.62,9.03-13.13,13.17-19.94-6.12,4.86-12.21,9.84-17.42,15.66-1.03,7.96,4.1,17.26-3.14,23.39-.65-3.56-1.99-10.76-2.68-14.32-2.41-.31-7.23-.88-9.65-1.19-1.38-2.41-4.13-7.23-5.51-9.68,5.93-6.55,12.56-12.48,18.68-18.83-8.04,3.6-15.66,8-23.31,12.36,1.42,3.75,2.83,7.5,4.29,11.25-3.75-1.15-7.46-2.26-11.18-3.41-4.1,5.28-8.19,10.53-12.48,15.66-2.03-4.63-4.02-9.22-5.93-13.86-4.98,2.33-9.95,4.56-14.97,6.7-1.22-2.22-3.71-6.66-4.94-8.88-13.28,6.12-24.73-4.33-36.06-9.88-2.33-.08-7-.23-9.34-.31-4.71-4.78-10.3-8.42-16.34-11.14-6.35-3.44-13.59-3.67-20.59-3.9-1.07-1.76-3.18-5.24-4.25-7-2.07-.73-6.24-2.22-8.31-2.99,1.8-5.74,3.52-11.48,5.01-17.3-5.47,6.55-9.84,15.39-19.67,15.2M3642.2,621.98c1.07,4.1,2.18,8.27,3.37,12.4,2.07.57,6.28,1.76,8.34,2.33,11.52-3.48,23.89-4.4,34.49-10.72,12.52,4.56,7.12,18.6-2.18,23.12-10.91-.73-21.59-2.68-32.31-4.25-4.75,2.11-9.57,4.33-14.78,2.64,5.67-8.84,3.98-17.07-3.22-23.58-.77,9.19-4.48,18.91-1.11,28.06,10.64,8.69,24.5.27,36.21-.96,3.41,3.06,6.85,6.16,10.37,9.23,8.57-6.43,25.65-10.34,22.55-24.31.38-11.06-10.79-18.72-20.94-14.05-12.78,5.93-28.25,7.54-40.8.08M1363.7,623.74c2.95,3.6,5.89,7.23,8.08,11.41-2.3,5.05-9,8.84-8.08,14.89-1.34,9.72,8.8,3.18,13.97,2.91,8.19,1.11,16.38,1.99,24.65,2.68,1.15,1.57,3.41,4.71,4.56,6.28,8.23-4.29,17.23-8.61,22.43-16.65,1.68-6.78.92-13.82.73-20.71-13.51,1.34-27.06.54-40.54-.23-.65,3.41-1.95,10.14-2.6,13.51-4.52-9.34-12.86-14.74-23.2-14.09M3938.2,645.79c4.98-1.68,16.19-8.77,8.04-13.63-7.2-7.12-4.94,11.18-8.04,13.63M3925.65,758.25c1.42.11,4.21.38,5.59.54,2.3-2.41,6.89-7.2,9.15-9.61.69,3.22,1.99,9.68,2.68,12.9,1.15,4.13,2.76,8.12,4.82,11.9,2.83,1.76,5.66,3.52,8.61,5.24-1.15-12.71-6.32-25.99-15.31-35.02-9.38-5.7-12.71,8.27-15.54,14.05M1668.96,785.5c6.78-2.6,12.94-6.47,19.33-9.88-2.11-7.89-8.42-5.63-14.28-3.87-.15-1-.54-2.91-.73-3.87,2.95-.15,8.88-.46,11.83-.57-2.68-2.91-8.08-8.73-10.76-11.6-.23-2.68-.73-8.04-.96-10.72-17.11,6.32-18.22,29.9-4.44,40.5M1189.38,775.55c-.73,5.21-1.49,10.45-2.3,15.66-7.16-4.4-13.44-9.95-17.95-17.03-.73,6.05-2.3,11.98-4.4,17.72-2.3-1.91-6.89-5.74-9.19-7.66-.92,2.18-2.76,6.51-3.67,8.65-1.34-2.56-4.02-7.77-5.36-10.37-3.18,6.16-1.19,12.75.19,19.1-4.4,1.15-8.73,2.45-13.01,3.9-2.79,13.01,13.89,7,21.7,8.19.77,1.26,2.26,3.79,3.02,5.05-1.65-.34-4.9-.96-6.51-1.26-4.86,3.45-10.72,4.13-16.46,4.59-1.61,1.42-4.86,4.25-6.47,5.66-2.41-.11-7.2-.34-9.57-.46-.8,1.68-2.41,5.05-3.22,6.7-3.83,3.06-8.08,5.44-12.25,7.96,5.24,2.18,10.53,4.36,15.81,6.51-2.95,1.19-8.84,3.6-11.79,4.78,4.4,2.18,8.92,4.13,13.51,6.01l.11,2.14c-2.45-.54-7.27-1.61-9.68-2.14-.11,2.07-.31,6.16-.42,8.19-2.45-1-4.86-1.99-7.27-2.95.15-6.89,2.64-15.54-6.66-17.49,2.53,7.27,2.64,15.16.38,22.51,3.25,10.68,9.45,19.9,16.73,28.29-6.93-.42-13.86-.84-20.78-1.26-11.1-4.1-22.12-8.5-32.31-14.58-8.38,9.07-1.11,18.11,4.59,26.26-1.23,13.36.08,26.72.73,40.12-9.19-5.97-9.03-17.76-14.16-26.45-5.7-10.03-11.45-20.1-15.2-31.04-7.12,8.27-13.44,17.19-18.72,26.76-5.13,4.48-12.94,5.74-16.73,11.83-5.01,15.16-1.53,31.27,5.97,44.94,4.75,7.81-4.75,12.36-9.22,17.07-12.29,10.18-21.47,23.89-25.99,39.23-2.79,6.81-3.52,15.35-9.84,19.98-23.35,17.15-51.14,26.87-79.04,33.68-5.78-.54-11.25-2.68-17-3.48-3.33,4.59-5.89,9.68-9.3,14.2-12.33,4.52-25.57,5.47-38.12,9.19-8.73,12.56-24.5,15.69-37.21,22.66-10.37,6.2-20.67-7.66-31.23-2.41-5.4,1.88-10.41,4.75-16,5.93-21.55,1.45-31.46,23.92-48.73,33.49-9.88,4.1-19.6,8.65-28.75,14.28-4.21,9.15-12.21,15.16-20.82,19.87-1.45,8.46-2.49,16.96-3.48,25.53-2.22.31-6.74.92-9,1.22,1.72-11.6,3.33-23.27,2.11-34.99-2.14-.38-6.39-1.15-8.54-1.53-4.1,13.55-9.19,26.79-13.78,40.19.54,11.94,6.16,22.85,9.72,34.14-6.01,12.44-11.56,25.19-15.58,38.43-2.26,26.87,20.1,46.32,30.2,69.32,4.36,8.5,15.35,25.91.84,29.55-7.35-9.15-11.45-20.25-17.61-30.12-6.32,6.47.27,15.96,1.88,23.35,1.72,7.31,15,10.99,10.18,19.14-13.05-2.95-19.1-17.34-27.29-26.72-7.92-8.34-6.66-23.46-18.53-27.98.73,16.46,12.56,28.79,19.33,42.99,10.68,21.82,28.94,39.12,37.86,61.9,4.75,10.99,1.76,23.16,2.95,34.68,6.05,10.45,17.23,16.92,22.81,27.83,6.43,11.48,15.43,22.85,15.77,36.59-.11,19.67,9.72,37.82,7.69,57.68,8.15,29.51,39.62,50.49,37.44,83.56-12.17,12.63-1.76,28.4-.23,42.83,2.03,11.25-.42,23.46-7.62,32.54-7.66,4.25-14.2-3.1-20.59-6.39,1,14.55,1.26,29.21,4.44,43.48,7.5.57,16.27-1.84,23.12,2.03,12.25,11.45,22.85,24.92,36.59,34.64,6.51.19,13.09-.04,19.64.19,9.57.65,17.15,7.73,26.49,9.26,12.48-2.26,24.73-5.74,37.32-7.62,9.26-11.06,22.09-17.49,34.41-24.54,8.5-1.38,19.56,1.88,25.68-5.7,2.3-6.32,2.87-13.13,4.71-19.56,3.94-7.58,13.4-6.7,20.59-7.04,13.13.15,24.73-8.08,37.93-7.43,17.57.27,36.29-5.01,52.52,3.98,8.08-4.17,16.34-5.55,23.62,1.11,7.81-8.96,17.91-2.79,27.52-1.76,17.88-8.19,25.84-27.25,30.05-45.24,31.85-13.05,61.28-31.43,89.46-51.06,15.2.73,30.2,6.16,45.51,3.79,30.32-6.05,56.04-25.38,86.47-30.81-.61-284.64.08-569.27-.46-853.87-8.5-4.02-17.07-7.77-25.84-11.06-7.2,9.53-13.32,19.75-19.37,30.01-1.57,4.52-3.14,9.11-4.78,13.63-6.81-14.81,2.07-28.78,7.96-41.99-17.45-16.57-34.53-33.91-55.08-46.66-8.54,9.53-20.13,13.82-32.46,15.96M3926.15,765.03c-2.98,5.63,8.96,15.5,11.37,7.2,0-5.74-6.62-8.42-11.37-7.2M3422.52,786.88c-10.56-5.17-13.47,7.89-19.1,13.67,2.03,1.65,6.01,4.9,8,6.55-2.26.96-6.78,2.87-9.03,3.83-.19,1.91-.54,5.78-.73,7.73-10.72,2.99-16.84,12.67-24.31,20.02,4.25,3.33,8.57,6.66,12.9,10.07-8.15-.46-16.23-.84-24.31-.69,4.59,14.51,7.27,29.55,13.32,43.64-14.43-3.33-27.02-11.18-39.73-18.37-8.88,11.98-5.97,26.53-2.18,39.81,1.19-.84,3.6-2.49,4.82-3.29,3.48.34,6.97-.31,10.34-1.42-4.71-4.82-9.34-9.38-14.2-13.86.5-2.76,1.49-8.27,1.99-11.02,18.3,10.18,41.49,20.1,61.44,8.04-4.13-6.55-10.22-11.22-16.92-14.78-.96-7.01-1.91-14.01-2.91-20.94,5.67.23,11.33.38,17.03.5-3.1-8.04-7.2-15.62-12.02-22.7,1.99,1.45,5.93,4.4,7.89,5.9,7.66-2.07,15.31-3.98,23.08-5.78-2.83-1.11-8.5-3.33-11.33-4.48,1.68-1.53,5.01-4.67,6.66-6.24-2.26-1.22-6.78-3.64-9.03-4.86,3.22-3.75,6.85-7.08,10.87-10.03,2.3.46,6.97,1.3,9.26,1.76-.38-2.49-1.11-7.39-1.49-9.84,2.64.31,7.89.92,10.49,1.22-1.22-7.46-2.37-14.93-3.25-22.39-1.91,1.99-5.67,5.97-7.54,7.96M3936.79,779.65c-5.28,6.89,10.83,11.94,12.79,5.09-2.68-3.87-8.19-7.46-12.79-5.09M3963.7,842.16c-.04,3.06-.15,9.15-.23,12.21,2.41-.73,7.16-2.22,9.57-2.99,1.8-6.51-4.86-7.73-9.34-9.23M4064.94,891.76c-6.43,3.9-7.54,11.98-10.26,18.26,11.64-.92,24.27-2.64,33.19-10.99.46-12.1-15.43-13.05-22.93-7.27M3337.7,918.1c5.21,4.1,10.6,7.96,16.15,11.67.31-4.25.92-12.71,1.22-16.92-6.12.73-12.13,2.03-17.38,5.24M1805.5,929.24c.8,6.28,11.98,5.82,12.21-.57-.57-6.66-11.94-5.78-12.21.57M670.56,1144.67c1.8,1.57,5.44,4.71,7.23,6.28,3.6-3.83,6.66-8.15,10.33-11.9-5.89,1.76-11.75,3.64-17.57,5.63M2956.37,1153.24c2.11.15,6.28.5,8.38.65,1.72-5.74,8.23-14.35-2.3-14.74-6.78,1.88-5.59,8.69-6.09,14.09M4541.58,1204.76c-.31,13.59,14.2,18.95,21.93,27.56.11-4.63.31-9.26.5-13.86-7.39-4.75-14.62-9.8-22.43-13.7M1322.97,1391.6c-.04,92.21.23,184.42-.23,276.6,26.22,2.18,52.17-2.11,77.97-5.63,14.7,5.74,24.38,19.41,35.25,30.28,7.46-1.99,14.55-5.28,22.01-7.31,9.53,2.56,13.21,15.81,23.69,17.11,5.51.19,9.91-3.87,15.08-5.32,6.28,4.94,10.41,12.25,17.38,16.65,1.22,1.76,3.67,5.32,4.9,7.08,4.52-2.33,9.07-4.63,13.67-6.93.73,5.86,1.61,11.71,2.33,17.61,1.11,7.81-11.14,14.89-4.36,21.9,4.33,9.49,14.89-.27,22.43-.19-1.15,7.43-2.45,14.89-3.87,22.28,6.78,3.87,14.09,7.08,19.98,12.33,1.99,19.45,10.95,37.05,21.4,53.28-5.32-6.39-16.8-22.89-21.67-7.92-3.56,11.06,11.48,10.53,17.99,13.89,6.05,6.43,10.6,15,20.63,15.89-1.38-7.73-9.91-15.5-5.24-23.39,10.14-19.22,19.75-41.03,39.35-52.36,11.02-6.58,16.57-18.87,25.76-27.48-.15-5.17-.31-10.37-.46-15.5,4.9-7.31,10.07-14.47,16.08-20.86-1.3,9.42-4.52,18.6-5.28,28.13,2.72,3.64,5.63,7.12,8.77,10.45-3.71,4.25-7.43,8.54-11.06,12.86,2.26,13.24-6.85,22.05-14.74,31.04-2.49,11.45-.84,23.39-2.87,34.99-5.36,7.58-15.92,5.13-23.89,7.23-1.68,5.36-3.41,10.68-4.98,16.08,10.45-5.86,22.12-5.4,33.68-5.86,8-16.19,16.12-32.42,22.09-49.49,6.35,8.73,13.01,17.65,16.27,28.13-2.07,19.52-13.4,40.38-33.57,45.55-10.37-4.44-21.63-2.53-32.46-1.88-8.38,3.98-17.15,7.27-24.92,12.4,4.02,3.64,8.04,7.27,12.13,10.87,15.89-1.88,38.01,4.4,47.89-11.87,4.48-8.08,13.82-9.49,21.97-11.52,15.27-3.1,26.72-14.55,39.89-22.05-3.06,5.51-6.28,10.95-9.68,16.31,6.16-3.56,12.25-7.39,18.83-10.14-3.1,7.73-9.68,13.13-14.55,19.71-1.03,4.98,5.36,6.78,7.96,10.07.69,1.68,2.07,5.13,2.76,6.81,12.21,7.54,14.74,22.47,17.15,35.48-1.76,6.43-5.4,12.1-7.77,18.3,12.86,23.08,23.46,49,46.01,64.65,3.94-1.34,7.81-2.87,11.64-4.56,7.31,5.55,14.24,11.71,20.21,18.79,3.02,2.07,6.05,4.29,9.19,6.39,5.05-5.89,11.98-14.66,20.71-9.11,17.03,11.71,33.91,23.85,51.56,34.76,10.64-2.95,17.03-13.51,25.19-20.36,6.47-7.96,17.76-3.37,26.53-4.59-1.49-6.97-3.06-13.82-4.67-20.67,7.23,1.84,14.35,3.94,21.51,6.28-1-8.69-2.07-17.3-3.06-25.95,6.55-1.45,13.09-2.99,19.64-4.52,1.88-5.13,3.87-10.14,5.86-15.23,19.41,7.96,39.24-1.88,58.91,2.45,11.37,1.3,21.86-4.13,32.04-8.34,9.11,17.65,26.03,28.98,36.33,45.7,7.77-3.02,15.39-6.55,23.43-9.07,13.09-2.18,26.49.15,39.66-1.57,9.84-1.95,17.03-9.34,24.23-15.73-10.03-4.52-18.6-11.45-25.45-19.98-5.01-1.38-9.95-2.76-14.85-4.29,2.87-.65,8.65-1.91,11.52-2.56-2.79-5.4-6.05-10.53-9.57-15.35-.61,3.87-1.8,11.64-2.41,15.54-3.29-14.74-17.07-22.55-23.96-35.14-5.7-.54-11.48-1.03-14.81-6.28-8.57-6.93-16.19-15.23-25.65-20.82-6.78,1.19-13.51,2.6-20.4,3.1-14.2,8.15-31.43,8.84-47.35,7.46-15.23-.73-33.15,7.35-44.21-7.08-5.28,1.26-11.52,6.7-16.61,2.18-12.29-10.95-19.64-27.9-37.13-31.77-8.61-21.01-32.5-29.59-40.19-51.06-21.86-.31-43.71.27-65.53-.19-.57,11.9-1.95,23.77-2.22,35.71.27,54.93-1.53,109.93.19,164.79-.96,1.07-2.83,3.18-3.75,4.25-2.33-29.63-.15-59.41-.54-89.11,2.83-63.39,2.49-126.93,2.64-190.43-.15-120.35.38-240.69.54-361.04-169.61-.65-339.22-.34-508.83-.84M2391.96,1487.72c-2.03,4.48-4.02,9-6.09,13.47-13.13.34-26.34.34-39.39,1.99-4.13,3.25-5.01,8.8-7.2,13.32-2.03-.08-6.05-.23-8.04-.31-2.68,14.85-18.3,18.56-30.89,20.71-8,1.19-11.79-7.66-17-11.83-13.74.69-18.68,14.78-27.18,23.16-6.89,9.07-19.1.96-28.4,2.87-6.51,4.78-11.9,10.87-17.65,16.5-11.94-1.3-23.85-3.6-35.91-3.41-63.16-.19-126.28-.15-189.4-.08-.15-6.43-.34-12.82-.46-19.18-49.68.11-99.41,0-149.09-.19.15,93.21-.73,186.41-.61,279.62,22.78-.5,45.55-.04,68.33-.19,8.31,21.7,32.19,31.01,40.69,52.33,18.95,2.56,25.65,21.51,38.7,32.61,2.22-1.76,6.66-5.36,8.88-7.16,5.93,3.44,11.64,7.39,17.95,10.3,18.99-1,38.05-1.07,57.07-1.19,9.95-4.75,19.87-9.91,30.74-12.33,19.18-6.97,26.68,19.02,39.54,27.56.27-15.12-8.8-26.79-16.8-38.47,3.94-3.56,7.92-7.12,11.83-10.72-1.76,2.56-3.48,5.17-5.21,7.81,7.66,12.17,11.02,26.26,15.92,39.66,4.13,2.07,8.38,4.33,12.52,6.62,1.76,19.25,28.71,17.57,30.89,36.94,8.54,8,17.15,15.96,26.95,22.47,7.08-22.89,8.8-47.12,17.23-69.63,4.9-16.77,15.12-31.2,21.36-47.39,8.34-13.28,14.09-29.21,28.59-37.21-2.53-33.42,20.48-59.37,38.97-84.33,8.27-10.26,21.4-14.24,32.42-20.63,3.25-24.46,21.78-42.79,29.86-65.46-4.4-13.05,1.61-26.18,3.79-39.01,5.21-25.38,13.59-49.99,24.77-73.34,2.26-23.2-1.8-46.43-4.71-69.4-4.33,1.22-8.65,2.41-12.98,3.48M3787.27,1740.31c8.08,2.03,16.42-.54,24.65-.54-.61,7.92-2.18,15.81-1.95,23.81,3.44,7.69,12.98,9,19.29,13.63-.12,4.48-.27,9.03-.42,13.59,2.56-.84,7.73-2.53,10.33-3.37-.65,2.18-1.95,6.51-2.6,8.69,6.97,8.31,11.52,18.6,13.78,29.17-2.72,4.59-6.24,8.69-8.5,13.51,2.34,3.75,5.55,6.97,9.19,9.61,3.6-1.72,7.31-3.41,11.1-4.94,1.26,5.63,1.53,11.71,3.94,17.15,5.86,4.75,13.93,1,20.86,1.3v-7.16c-9.23.46-19.22,1.88-23.5-9.07,6.66.34,13.36.88,20.13,1.61,2.87-19.06,9.61-37.82,22.01-52.82,6.81-6.81,17.53-7.23,24.96-13.36,10.76-8.54,15.46-21.86,21.13-33.88,1.76,4.4,3.6,8.8,5.47,13.24-7.46,11.33-9.42,24.69-12.29,37.59-6.58,12.56-14.74,25.38-11.02,40.38-8.92.34-17.76,1.34-26.6,2.11-2.6,6.97-5.28,13.89-7.96,20.82,7.46,0,14.97-.11,22.51-.19.42-1.76,1.26-5.32,1.72-7.08-2.6-.19-7.81-.54-10.41-.69l-.19-4.48c4.06-1.53,12.13-4.63,16.15-6.16.96,3.18,1.88,6.35,2.68,9.65.15,5.63,2.56,10.76,5.97,15.2,16.77-9.99,21.86-29.44,26.72-46.97,3.79,13.05,21.4,27.41,9.88,40.54,2.79,1.61,5.63,3.25,8.54,4.9,10.83-16.69-4.63-31.89-12.25-45.86-6.58-13.86-24.15-26.6-14.62-43.48,7.77-11.22,8.96-28.79-4.67-35.83,3.33-.77,6.78-1.57,10.3-2.37-3.18-2.87-6.7-10.14-11.45-5.21-6.93,12.75-9.42,27.9-18.72,39.43-8,7.89-20.86,8.27-28.33,16.84-12.29,14.7-20.86,32.31-25.42,50.87-5.59-1.49-11.1-3.06-16.5-4.71-4.9-21.51-13.89-41.95-24.11-61.32-7.04-4.75-14.81-8.19-22.12-12.36,2.37-8.38,3.6-17,3.79-25.68-11.6-2.6-26.64-.23-30.93-14.58-3.6,5.51-4.06,12.82-.54,18.49M1549.84,1797.31c-1.91,5.24-.11,7.16,5.32,5.67,1.91-5.28.15-7.16-5.32-5.67M3975.33,1874.06c-1.72-2.76-3.37-5.44-5.01-8.11-6.85,7.46-15.96,12.02-23.77,18.22-7.81-10.49-20.86-5.7-31.31-3.79-9.84,2.34-21.63,3.22-27.87,12.25-3.94,11.33,11.48,16.19,20.17,15.01,14.93-2.07,38.09-1.61,40.5-21.28,22.01-.08,41.26-10.91,61.21-18.68-1,3.37-2.95,10.07-3.9,13.44,3.25-3.18,9.8-9.57,13.05-12.78l-3.29-4.82c-14.05-4.21-26.79,6.85-39.77,10.56M2059.59,1988.85c-19.48-1.65-38.89,1.07-58.41.08-3.75,4.21-6.89,8.92-10.18,13.47-5.44,2.11-11.75,3.02-15.54,7.81.08,5.7,4.33,10.18,6.58,15.23,5.93,4.36,11.56,9.19,17,14.28.27,3.6.57,7.27.92,10.95,4.02,1.8,8,3.71,11.98,5.67-5.89,2.11-11.75,4.25-17.61,6.39,2.33,3.41,4.67,6.74,7.16,10.18,6.12-3.25,12.21-6.62,18.3-9.99,1.22,5.51,2.49,11.1,3.52,16.69,1.57,1.42,4.71,4.17,6.24,5.55,3.87,5.86,5.4,15.54,13.93,16.11,4.1-5.82-1.91-12.63-2.79-18.72,10.41-14.24,24.96-24.77,41.76-30.01,8.5-12.56,20.94-20.59,34.03-27.71-1.3-5.17-3.22-10.14-5.17-15.08-10.91-7.16-18.45-17.88-25.45-28.63-8.19,4.13-16.84,8.38-26.26,7.73M1979.59,2033.68c-6.81,5.21-11.41,15.23-4.67,22.39,5.82,1.57,11.9.96,17.88,1.11.11-7.39-.42-14.74-1.15-22.01-4.02-.73-8.04-1.22-12.06-1.49M1927.07,2119.46c2.33,5.01,4.33,10.37,7.23,15.16,5.44,3.83,12.1-.54,12.33-6.7,3.22-8.15-4.98-12.78-9.8-17.61-3.29,3.02-6.58,6.05-9.76,9.15M4210.74,2139.36c5.24-4.36,10.07-9.23,14.28-14.62-4.94-5.01-8.92-16.96-17.95-12.56-13.05,5.93-1.76,19.75,3.67,27.18M4368.18,2114.48c-2.14,5.86-4.4,11.75-5.67,17.91,2.91,10.87,8.73,21.74,18.49,27.94,8.15,1.84,14.66-7.46,10.87-14.81-5.97-11.6-13.47-22.81-23.69-31.04M2084.43,2131.52c8.73,9.99,12.86,31.5,30.16,26.95-3.94-15.39-12.36-28.59-21.93-41.03-2.83,4.63-5.55,9.34-8.23,14.09M4189.23,2129.83c.5,9.15,1.45,18.34,4.06,27.18,3.79-.19,7.66-.38,11.56-.54-.19-1.34-.61-3.94-.84-5.24-3.18-6.93-5.67-14.09-8.11-21.21-1.68-.04-5.02-.15-6.66-.19M1920.11,2153.49c12.94.19,1.72-16.34,1.57-23.43-3.67,7.46-6.62,15.81-1.57,23.43M1950.15,2175.23c1.22,13.67-.96,27.56,1.45,41.11,11.1,20.1,25.88,39.27,30.97,62.05-5.82-4.52-7.81-18.87-16.84-13.89,3.56,15.5,9.42,30.43,16.88,44.44,5.32,10.95,15.92,18.83,17.49,31.62,9.22-.8,16.27,3.45,20.48,11.6,1.3.15,3.9.5,5.21.69.88-7.35,5.01-13.24,9.49-18.79,3.75,3.48,7.58,7,11.52,10.41-.19-6.24-.38-12.44-.57-18.6,1.84-1.11,5.55-3.25,7.43-4.33-.15-3.22-.5-9.61-.65-12.78,3.48,2.72,7,5.47,10.53,8.23.46-6.74,1.19-13.44,2.26-20.06,3.94,2.76,7.5,6.01,11.18,9.19-7.2,9.34.77,15.39,8.77,19.22-1.65-4.36-3.37-8.65-5.13-12.9,4.21-8.96,8.42-17.95,11.9-27.22-.61-9.68-1.57-19.48,2.64-28.59,2.45-.96,7.35-2.83,9.8-3.79-2.3-5.05-4.71-10.07-7-15.04,11.22-10.99,4.86-27.83,8.73-41.53-2.18-5.59-4.4-11.1-6.62-16.57-7.39-2.03-15.69-9.38-22.55-2.3-16.27,11.6-36.9,14.51-56.12,16.15-18.45-8.88-41.23-9.99-54.16-27.9-5.67,3.29-11.33,6.51-17.07,9.61M4237.88,2172.63c-2.76-.19-8.31-.61-11.06-.84-1.49,16.65-5.7,34.45,1.42,50.45,5.32,13.09,13.93,24.46,20.63,36.86-2.95,3.56-5.67,7.27-8.15,11.18.8,13.74,10.1,24.84,15,37.28,4.94,14.43,17.91,23.62,26.49,35.79,10.56,4.17,20.75,10.26,32.61,9.42,5.17-6.47,10.03-13.28,13.4-20.9,1.76-.8,5.28-2.41,7.04-3.18-.65-4.33-1.23-8.61-1.68-12.86,1.61-1.76,4.82-5.21,6.43-6.93-3.41-1.72-6.93-3.1-10.34-4.44-2.83,10.91-6.39,21.63-10.26,32.23-4.67-1.19-9.23-2.26-13.74-3.48-1.49,2.33-4.48,7.04-5.97,9.42-8.11-3.41-18.18-4.98-22.32-13.78-13.86-18.18-30.16-39.43-27.75-63.35,10.68,3.33,22.16,5.7,30.01,14.55-4.02-15.85-22.93-17.26-29.21-31.35-14.78-19.75-24.35-45.02-16-69.51,22.85,3.33,42.53,16.8,64.84,22.12,13.13,3.06,24.8-5.47,37.17-8.38,11.52-2.76,22.39-7.58,31.62-15.16,7.73,7.12,11.87,16.77,16.23,26.14-3.25,7.16-1.45,14.78.23,22.12-2.56,3.1-5.09,6.28-7.54,9.49,1.11,2.83,3.29,8.5,4.4,11.33-1.72,1.15-5.17,3.41-6.89,4.56-3.87,13.55-5.55,27.68-9.45,41.26-2.37-.5-7.16-1.45-9.53-1.95,1.57,3.75,3.22,7.54,4.94,11.33-3.68,2.49-7.31,4.94-10.91,7.35-.04-8.61.77-17.19-.04-25.72-9.76,9.38-10.03,35.9,9.19,31.04-.27,2.68-.84,8.04-1.15,10.72,2.3-.27,6.85-.73,9.11-1-1.57-4.52-3.37-9.15-4.94-13.59,2.3-3.48,4.71-6.89,7.2-10.26,2.64-9.03,4.94-18.14,6.62-27.37.88-5.24,1.49-10.6,2.22-15.81,1.49-.27,4.56-.73,6.05-.96,2.45-18.41,6.43-36.86,4.29-55.5-.15-12.9-9.95-23.31-20.44-29.51-18.95,11.1-40.19,17.95-61.09,24-22.12-6.24-46.24-11.83-63.89-27.45-1.19,1.19-3.56,3.48-4.79,4.63M3618.05,808.4q2.33,2.37,0,0M1632.83,827.92q2.3,2.53,0,0M3373.75,853.87c11.02-6.47,1.3,12.78,0,0M3386.54,892.68c-5.47-3.71-5.32-6.85.46-9.38,5.36,3.6,5.21,6.7-.46,9.38M3314.88,893.33q2.49,2.3,0,0M4067.51,900.68c-3.45-6.24,11.1-10.68,11.98-3.83-2.99,4.48-7,5.74-11.98,3.83M4660.2,1487.6l7.12-2.14c2.11,8.04,4.33,16.11,7.92,23.73.15,16.23,4.75,32.31,3.6,48.54-12.75,30.81-24.54,62.43-29.28,95.62-1.3,6.28-8.31,9-12.17,13.59-7.73,5.93-8.96,16.19-12.1,24.77-14.89-2.41-28.79-11.67-44.21-8.73-6.35-7.62-12.33-15.5-19.25-22.55-3.94-14.78-19.25-19.67-32.61-22.05-1.45-6.89-2.6-13.82-3.83-20.75-1.72-.04-5.17-.11-6.89-.19-1.26,1.91-2.41,3.83-3.56,5.78,2.03,1.53,6.05,4.59,8.08,6.12-1.22,2.49-3.6,7.46-4.82,9.95,6.2,8,17.84,5.93,26.41,9.88,8.46,2.22,9.53,12.21,13.4,18.79,11.71,9.34,21.97,27.1,39.62,20.9,1.68,1.76,5.02,5.28,6.7,7.04,6.51,1.34,12.98,3.18,19.6,4.44,4.98-13.7,11.06-28.56,25.46-34.83-6.62,23.5-20.1,44.25-33.65,64.27-12.33,12.78-30.47,20.78-38.09,37.78-10.76,24.23-32.5,45.17-29.36,73.76-4.67,1.95-9.19,4.02-13.74,6.09-.27,2.22-.77,6.7-1.03,8.92-2.33,4.17-4.55,8.38-6.78,12.59-14.24-6.09-24.46-20.48-41.42-20.25-.08,2.53-.23,7.58-.34,10.11,3.02,4.25,5.86,10.99,12.52,7.89,1.61-3.56,3.52-6.97,5.7-10.22,2.95,4.06,5.86,8.15,8.77,12.29,3.79,2.03,7.58,4.1,11.48,6.2-10.22,17.45-19.79,35.48-24.73,55.2-5.93,17.19-6.47,35.52-11.41,52.94-15.46.92-24.84-20.48-40.35-10.49,2.41-2.64,4.82-5.28,7.27-8-7.46-10.72-14.55-22.85-27.22-27.98-.31-1.91-.88-5.67-1.19-7.58-2.91-2.11-5.74-4.21-8.5-6.28-.69-13.86-8.57-25.49-15.12-37.13-1.91.11-5.7.31-7.62.42,6.24,11.1,13.55,21.82,16.65,34.41-1.57.15-4.63.5-6.2.65-1.91-6.55-6.35-11.33-11.94-14.93-1.8-3.06-3.56-6.12-5.24-9.15-18.72-3.41-32.92,10.26-49.84,14.55-19.29,1.99-38.62-3.56-57.72,1.88-6.7-9.61-17.26-9.61-27.67-8.73-10.33-9.88-17.61-23.5-32.31-27.79-12.67-20.02-31.12-35.22-46.47-52.94-21.7-.27-43.37.15-65.07.11.11-92.9.34-185.84.73-278.74,49.19-.73,98.26,2.03,147.45,2.33,2.03,5.63,4.02,11.33,6.09,17.03,31.08-.73,62.13,3.33,93.17.34,41.42,2.53,82.99.38,124.44,1.91,11.52-7.89,23.58-22.51,38.55-11.29,12.44-8.23,21.59-20.25,31.46-31.23,6.85,4.94,13.67,10.07,20.4,15.31,8.46-3.25,17.15-5.97,26.1-7.85,3.33-6.51,6.66-13.05,10.14-19.48,2.37.23,7.12.65,9.53.88.54-2.72,1.68-8.15,2.26-10.87,15.85-.42,31.73.61,47.62.19-2.14-5.05-4.4-10.11-6.51-15.04M4397.89,1834.67c2.49,12.59,10.33,22.89,20.9,29.97-3.02.5-9.07,1.45-12.1,1.91,6.16,4.25,12.94,7.77,20.63,8.19.27-15.23-17.53-21.21-17.3-36.06-4.06-1.45-8.11-2.79-12.13-4.02M2235.25,1614.19c4.56,1.15,9.11,2.49,13.67,4.06.31,6.24-.88,12.44-.77,18.68,9.42,6.12,21.89,4.78,31.69,10.26,6.7,4.21,7.35,12.82,9.07,19.79,7.77,5.32,15.39,11.1,23.89,15.31,17,2.37,32.73,9.61,49.42,13.4-5.09.8-10.14,1.61-15.16,2.49-5.44-2.91-10.83-5.82-16.19-8.8-5.55.38-11.1.8-16.61,1.19-3.48-3.44-7-6.85-10.53-10.14-14.89-2.03-19.87-16.19-25.26-27.98-9.38-8.15-25.15-2.76-33.53-12.63-4.55-4.33-2.14-10.87-2.3-16.27-2.49-3.14-4.94-6.24-7.39-9.34M3946.82,1804.39c7.46-5.17,10.18,4.48,12.67,9.84-4.67,17.23-10.68,35.64-25.19,47.2.04-1.26.12-3.83.15-5.13,1.53-4.1,3.44-7.96,5.78-11.71.69-13.4-4.06-29.47,6.58-40.19M4108.46,1830.5c20.67.27,41.38-.27,62.13.19,14.58,16.42,33.45,29.63,43.48,49.8,17.91,5.21,27.02,21.78,39.39,34.22,5.82-2.07,12.94-6.58,18.3-.73,6.74,6.55,16.04,5.4,24.46,3.33,13.55-4.59,27.41,6.51,40.65-1.03,16-1.45,30.51-9.34,46.39-12.21,6.47,6.89,12.67,14.05,18.64,21.47,9,.57,15.12,6.32,19.71,13.7,5.97,4.29,12.75,8.61,14.93,16.23,3.71,6.97,4.48,17.38,13.21,20.13,13.05,3.98,23.96,12.33,36.29,17.99-23.23,18.56-54.66,7.35-79.66,21.21-12.4-13.78-26.95-25.91-36.21-42.26-6.39-.69-12.44.84-17.42,4.94-12.4,1.19-24.65,4.75-37.17,2.91-13.21,4.67-27.37,4.4-40.65.42-2.22,1.49-6.66,4.52-8.88,6.05-.19,2.33-.54,7.04-.69,9.38-7.39,2.49-14.93,4.44-22.39,6.32,1.76,4.67,3.68,9.42,5.59,14.12-5.01,3.48-9.99,7-14.97,10.45,4.82,5.47,9.8,11.02,13.78,17.26-12.82,6.35-15.16-11.06-16.54-19.22-16.92,10.87-31.16,25.19-47.24,37.17-13.78-8.65-26.11-19.48-40.31-27.41-10.53-6.47-23.27-3.94-34.87-3.37-.11-67.02.46-134.05.04-201.07M3855.26,1839.91c-4.98-2.87-5.01-5.55-.08-8.08,4.86,2.87,4.86,5.59.08,8.08M2125.62,1838.5c9.45-1.65,11.29,6.05,12.17,13.67,5.01,5.47,9.61,11.33,14.16,17.26-5.78,2.3-11.83,3.79-18.03,3.44,2.83-1.65,8.5-4.94,11.33-6.58-8.31-7.85-16.92-16.27-19.64-27.79M2214.31,1850.55c1.88-.19,5.59-.61,7.46-.84,4.33,4.17,8.84,8.19,13.32,12.29,4.4-1.53,8.88-2.91,13.44-3.98.27,4.56.88,13.63,1.19,18.18-7.89-5.86-15.89-11.52-23.46-17.72-3.71-.04-7.39-.04-11.02,0-.23-1.99-.69-5.93-.92-7.92M3892.38,1895.26c13.97-8.11,30.74-7.89,46.39-9.84,1.68,7.73-4.17,13.01-11.45,13.32-11.71.88-25.65,6.47-34.95-3.48M4306.25,1989.81c20.56-3.94,43.94.96,61.9-12.1.54,2.45,1.61,7.35,2.14,9.8,10.79,8.46,20.02,18.64,29.13,28.86-17.8,10.07-34.6,21.86-46.74,38.62-10.3,4.94-20.9,9.34-32.58,7.92-4.71,10.03-5.59,21.13-5.09,32.12-7.73-24.08-34.45-34.57-57.8-34.37,1.57-4.67,3.25-9.3,5.01-13.89-4.86-.31-9.76-.65-14.47-.88-.84-7.5-1.57-14.97-2.22-22.39,9.3,2.3,17.49,7.35,25.88,11.94-1.42-12.86-13.13-19.87-22.2-27.22,13.36,2.45,22.01-7.54,25.38-19.37,10.49.69,21.09,3.45,31.66.96M4268.85,2043.32c2.34,7.12,5.05,14.16,10.22,19.83,4.63-4.78,9.68-9.3,13.63-14.74,2.34-15.2-16.15-8.8-23.85-5.09M4222.65,2037.58q2.6,1.53,0,0M4276.35,2047.61c.08-6.47,11.56-7.04,11.83-.34-.54,6.24-11.67,7.23-11.83.34M4208.52,2118.19c4.94-3.71,10.87,4.78,6.28,8.57-5.05,3.71-10.87-4.86-6.28-8.57M4385.33,2155.82c-10.95-6.35-18.76-18.49-14.43-31.31,6.93,9.22,16.27,18.56,14.43,31.31M4307.51,2342.73c11.37-6.32.42,12.98,0,0h0Z"/>
  <path class="cls-2" d="M4207.8,590.29c11.1-6.32,1.07,12.94,0,0M4199.45,651.38c8.31-21.36,10.68-45.74,25.84-63.89,3.68,1.45,6.93,3.64,9.76,6.55,8.88,12.36,13.44,26.76,14.58,41.8,4.98,10.56,4.56,21.82,4.17,33.15,4.94,3.02,10.33,5.13,15.62,7.62-1.07,9.72.76,18.83,7.43,26.22-.5,27.25,2.95,54.81,11.67,80.69,7.66,7.66,15.46-3.37,23.31-5.47,2.72,2.87,5.4,5.82,8.04,8.84,1.61.84,4.78,2.53,6.39,3.37,2.56,12.02,17.57,13.01,19.71,25,1.91,8.84,18.34,7.81,14.35,18.83-4.52,24.46,1.95,49.03,2.6,73.57,4.9,12.63,18.56,20.56,21.9,34.22,3.75,16.27,10.72,33,5.67,49.84-2.91,8.61-4.4,17.91,4.21,24.04,2.18-6.55,4.48-13.09,6.97-19.52,2.87,6.47,1.88,12.9-2.41,18.53,4.25,8.31,4.67,17.49,3.52,26.6,14.05,6.62,27.67,14.39,38.01,26.26-2.37-4.21-4.67-8.46-6.93-12.67,5.28-.88,10.68-1.99,16.12-.88-1.03,4.44-2.56,8.73-3.94,13.05,8.96,5.93,14.2,20.02,26.91,17.88-1.23,1.88-3.67,5.67-4.9,7.58,9.99-2.3,16.73,5.09,23.47,10.95.54-1.88,1.61-5.67,2.14-7.58,4.71,5.74,9.8,11.25,13.7,17.65-2.99,4.06-6.32,7.81-9.34,11.79,6.47,4.75,12.94,9.61,18.79,15.16-4.63,8.19,3.9,12.86,6.58,19.64,8.15,23.89,13.93,48.57,18.37,73.42-11.71-7.27-10.22-22.43-13.28-34.11-2.6-20.82-12.71-39.39-22.09-57.72-4.44-4.78-11.22-7.12-14.7-12.67-.11-6.39.96-12.71.88-19.02-5.17-4.21-10.87-7.66-16.42-11.14-2.95,1.03-8.88,3.06-11.87,4.06-7.08-12.56-11.9-31.23-29.63-30.85-8.73-12.17-22.58-17.88-34.64-25.76-7.43-4.59-2.79-13.93-3.56-20.82-4.59-6.12-10.87-10.72-15.5-16.77-.84-14.66,8.69-29.09,2.6-43.6-4.71-12.29-4.48-26.76-13.59-37.01-5.59-7.58-14.47-14.16-14.32-24.46-.84-17.03-1.19-34.11-3.52-51.02-1.68-6.7,1.23-13.05,2.87-19.41-17.61-12.33-28.13-31.46-43.22-46.24-6.28,8.15-22.2,11.98-27.25.8-11.52-24.54-14.47-52.48-14.12-79.35-5.36-7.66-8.08-16.46-7.46-25.8-6.39-3.02-15.27-5.47-16.84-13.44-1.26-8.46-.42-17.07-.31-25.61-8.5-11.18-6.12-25.34-10.33-37.97-3.71-.11-11.18-.31-14.89-.42-8.61,26.03-12.44,54.66-30.7,76.4,6.7,3.64,22.24,5.47,18.49,16.19-5.89,1.19-11.94,1.34-17.84,1.8-.96,13.44-.96,27.37-6.55,39.92-7.04,10.79,2.37,22.28,1.42,33.68-1.15,19.14-1.45,38.32-1.15,57.53.46,8.31-5.67,14.78-8.84,21.93-9.76,19.18-4.02,44.21-20.13,60.33-10.6,9.53-7.01,26.72-18.41,35.45-10.53,8.19-25.15,13.01-38.2,8.8-16.31-8.8-29.82-21.7-42.14-35.29-13.05-7.5-29.59-5.55-42.26-14.01-14.24-9.03-27.02-20.13-41.15-29.28-2.45,46.47-.27,93.09-1.03,139.6-.15,122.83-.31,245.63-.65,368.46,46.74.42,93.51-.34,140.25.65.92,50.91-3.22,101.74-1.99,152.73,50.37.65,100.71.38,151.08,1.3,2.07,6.12,4.21,12.21,6.43,18.37,71.31-.08,142.66.15,213.94.88,6.7-4.75,12.02-11.48,19.6-14.97,7.27-1.15,14.7.42,22.05-.61,8.11-7.23,14.05-16.61,22.55-23.46,10.45-5.28,18.45,5.01,25.19,11.37,7.35-2.99,15.12-4.48,23.01-5.59,5.55-10.34,10.07-22.47,21.55-27.71,8.88-9,20.75-.46,31.27-3.02,12.17,2.03,12.29-12.02,17.07-19.56,1.84-29.24,18.18-61.25-.5-88.23-12.94-11.37-13.09-31.2-27.33-41.03-9.65-18.22-23.69-33.03-38.05-47.54-2.26-1.03-6.78-3.14-9.03-4.21-2.76,1.72-5.47,3.48-8.11,5.21-1.34-16.61-7.89-32.61-6.7-49.46.57-7.2-.46-14.32-3.98-20.67-1.91-6.58-4.17-13.21-5.05-20.02,21.82,16.08,13.4,46.74,15.46,69.97,9.49,8.8,22.58,12.56,31.35,22.28,23.12,20.52,34.87,49.91,54.16,73.53.65,3.06,1.99,9.15,2.64,12.17,6.51-.31,8.69-7.66,12.86-11.52-3.14-.8-9.42-2.45-12.55-3.25,2.91-7.5,5.36-15.35,9.57-22.35,10.72-1.8,8.54,10.95,2.03,15.2,6.47,9.49,2.64,20.02-4.1,28.13,5.47,23.66-1.65,46.93-4.59,70.36,9.03,30.85,14.74,63.66,11.9,95.81-13.78,34.53-26.14,70.35-28.94,107.71-.73,6.93-4.63,12.86-7.73,18.91-9.61,17.11-17.72,35.25-29.44,51.1-11.18,8.84-25.8,14.55-32.42,28.06-7.27,14.62-15.77,28.56-23.96,42.6-6.24,10.26-5.17,22.66-7.54,33.99-4.13,3.67-9.19,6.05-13.82,8.84-5.59,15.12-12.94,29.55-21.01,43.52-16.54,30.47-19.71,65.46-27.48,98.57-13.7,20.98-41.07,15.31-62.05,19.83-11.06,4.02-23.43,4.56-33.34,11.33-13.44,7.96-24.77,18.79-35.83,29.67-11.56,7.62-24.27,13.47-37.4,17.8-3.48,9.65.92,19.25,1,29.05-2.03.57-6.12,1.8-8.15,2.41-9.95-13.47-17.38-30.47-34.56-36.17-14.24,5.28-29.82-3.71-31.54-18.87-10.41-1.19-20.63-3.41-31.01-4.29-11.64,6.39-20.59,16.42-31.31,24-23.16-5.82-37.05-33-62.66-32.77,1.99,7.58,4.17,15.23,5.74,22.97-5.21-7.31-9.49-15.27-15.04-22.28-4.75,1.65-9.07,4.1-13.86,5.55-6.28-6.47-11.29-14.01-16.92-20.94-5.05.88-10.07,1.57-15.04,2.14-23.35-18.03-40.38-42.79-50.11-70.55,14.43-15.43,3.14-36.52-5.51-51.83-2.76-6.05-9.38-8-14.24-11.67.42-2.72,1.22-8.19,1.65-10.95,3.18,1.99,9.53,5.93,12.71,7.92,6.32,15.35,17.38,28.79,19.83,45.59,2.83,8.73-3.06,16.42-5.44,24.42,9.42,23.69,24.54,45.24,43.56,62.39,2.95-3.29,5.93-6.55,8.96-9.76,8.65,8.31,15.66,18.07,23.5,27.18-3.33-47.24-.84-94.62-1.23-141.94,2.22-99.64.73-199.35,1.65-298.99.15-68.06,1.57-136.08,1.72-204.1-169.69.11-339.37-.15-509.06-.19-.08,88.61,0,177.27.23,265.92-1,7,6.35,9.95,12.21,8.77,21.82-.38,43.48-3.83,65.11-6.78,14.93-1.99,23.54,13.4,35.22,19.9,11.52,9,27.37,3.87,39.81,10.68,11.83,5.63,22.97,14.09,36.86,13.24,6.32-.73,14.28,14.51,3.14,11.18-12.33-5.74-25.95-8.31-37.4-15.85-14.01-9.68-33.49-3.18-47.16-13.78-9.95-6.16-16.77-20.48-30.12-18.26-27.79,4.4-55.92,6.55-83.98,3.9-27.56,7.96-52.52,23.5-80.73,29.7-15.46,2.68-31.08-.5-46.35-2.72-25.88,17.3-51.98,34.64-80.31,47.54-6.28,14.89-10.18,31.43-21.59,43.48-10.56,3.29-22.93,6.51-33.26.57-3.75,2.49-7.43,5.05-11.02,7.69-3.18-2.68-6.28-5.36-9.38-7.96-6.58,1.15-13.36,6.2-20.02,2.91-22.66-8.77-47.24-.77-70.09,3.1-7.81,1.68-17.99.04-22.39,8.31-1.11,4.44-1.95,9-2.56,13.59-10.99,6.32-24.92,2.33-35.68,8.54-9.8,11.94-19.98,23.73-32.96,32.34-1.42-1.68-4.25-4.98-5.67-6.62-13.59,1.45-27.33,4.86-41,2.99-15.08-3.6-29.55-9.3-43.25-16.38-10.68-5.86-17.11-16.77-26.79-23.81-7.58-2.72-15.54-3.79-23.27-5.67-.96-15.69-1.07-31.46-1.26-47.2,7.04,4.17,17.57,14.97,23.08,3.02,3.75-20.21,3.52-40.57-2.72-60.25,2.33-5.13,4.98-10.18,6.66-15.58-1.57-23.5-19.22-40.88-29.47-60.82-6.01-10.68-3.75-23.31-6.09-34.83-2.37-11.48-5.59-22.78-6.47-34.45-.92-24.15-20.56-41.26-33.3-60.02-.42-19.48-4.67-39.04-13.21-56.65-16.61-24.27-32.15-49.3-48.42-73.76-6.05-7.12,1.42-12.78,5.97-17.76,1.84,18.83,11.18,35.1,21.97,50.14.88.11,2.64.31,3.48.38.69-1.15,2.07-3.48,2.76-4.67-7.81-12.75-17.65-25.91-16.57-41.68,11.25,9.53,9.61,28.52,24.19,34.18-.69,2.11-2.03,6.32-2.72,8.42,2.49,2.18,7.54,6.51,10.07,8.69,3.25-14.89-13.01-23.96-19.06-35.68,13.67,1.84,18.76,15.12,26.79,24.19-.04-7.35.12-15.04-4.02-21.44-10.41-20.1-23.16-39.01-32.34-59.71-6.77-19.52,9.07-36.21,11.79-54.81,3.45-12.67-7.81-23.85-6.85-36.1,6.12-15.16,5.82-33.61,19.14-44.98,1.8.27,5.4.73,7.2.96,1.99,4.13,4.06,8.27,6.12,12.44,9.61-4.52,18.14-10.91,23.92-19.98,9.95-4.52,21.59-7.27,28.59-16.42,7.08-9.91,20.78-12.21,26.41-23.46,3.22-7,11.94-5.13,18.18-6.93,10.45-10.11,24.15,5.78,36.29-1.3,11.87-7.54,26.11-10.26,37.36-18.83,10.41-7.69,23.85-8.57,35.68-13.24,3.1-7.12,8.23-11.37,16.08-8.08,28.9-6.35,59.22-12.21,83.37-30.43,9.19-7.04,10.41-19.45,14.58-29.44,6.24-18.34,18.91-33.19,31.89-47.08-.65-11.52-8.84-21.67-7.58-33.45.92-8.54,3.41-16.73,6.12-24.8,3.14-1.61,6.32-3.18,9.57-4.75,7.01-11.6,17.34-20.67,24.38-32.23,7.46,5.59,7.54,14.89,9.07,23.31,5.63,13.32,14.39,25.11,20.33,38.32-.96,1.99-2.91,6.01-3.87,8-10.87-16.31-18.6-34.45-27.79-51.71-11.94,8.5-21.74,20.13-29.36,32.57-7.23,14.47,3.29,28.17,6.62,41.91-4.98,13.82-18.49,22.39-25.11,35.41-10.6,14.93-9.42,36.36-24.23,48.38-22.93,16.8-51.02,23.81-78.2,30.05-17.03,8.96-35.94,13.28-53.28,21.36-13.24,10.64-31.77,10.45-44.1,22.55-18.37.73-42.79-7.96-55.58,9.88-6.55,7.46-16.84,10.3-23.04,18.18-8.65,11.25-23.5,14.05-33.3,23.89-6.12,5.82-14.01,9.11-20.67,14.16-4.13,5.93-2.68,13.93-3.98,20.75-1.65-.46-4.94-1.34-6.58-1.8-.42-9.91-1.34-19.83-3.25-29.55-8.23,9.49-8.34,22.55-12.59,33.8-7.01,13.89,8.38,25.99,5.78,40.04-3.22,13.36-9.95,25.49-14.2,38.51-2.07,12.25,6.81,22.39,11.56,32.88,8.38,18.68,20.9,35.33,27.37,54.89-3.29,6.89-6.89,13.59-10.76,20.17-5.86.96-11.71,1.45-17.45,2.49,1.42,13.47,16.57,24.54,22.24,37.9,4.86,16.42,10.64,32.88,9.91,50.26,11.87,17.49,27.9,33.26,33.49,54.24.23,14.01,3.14,27.71,6.01,41.38,2.68,12.86-.31,27.25,7.96,38.55,12.17,20.13,32.04,41.3,23.81,66.76-6.51,13.63,4.4,26.95,2.18,40.8-1.53,11.18,1.42,24.54-7.31,33.42-4.29,6.12-12.29,1.84-18.18,2.45.5,9.3.73,18.64,1.03,27.98,18.87-.5,29.09,15.89,41.88,26.64,13.93,8.57,29.55,14.32,45.17,19.06,15.27,2.14,30.32-3.14,45.44-4.67,14.32.04,19.71-15.04,29.74-22.43,8.54-6.47,19.79-5.05,29.86-5.51,6.32-8.19,10.11-19.18,19.29-24.65,29.86-1.45,60.56-16.54,89.95-4.48,9.03-.96,18.26-3.64,27.25-.42,6.51-2.68,13.47-3.9,20.36-1.8,6.35-1.11,12.82-1.3,19.25-1.99,11.22-11.94,11.87-30.16,22.58-42.03,28.86-12.98,54.66-31.69,81.99-47.39,13.17-.19,25.95,4.59,39.12,3.79,31.16-5.89,58.34-23.62,88.92-31.5,1.95-283.76-.5-567.59.92-851.38-5.21-1.15-10.33-2.26-15.43-3.37-1.15,5.28-2.22,10.64-3.29,15.96-1.68.08-5.05.19-6.7.27-.34-6.12-.77-12.17-1.3-18.22-7.35,1.34-15.46,1.91-21.24,7.16-3.94,6.74-5.47,14.55-8.31,21.78-1.38,6.58-3.1,13.09-4.86,19.56-2.45-2.03-4.86-4.02-7.2-6.05,3.48-14.24,9.61-27.94,11.71-42.45-9.38-18.64-26.76-34.53-46.85-40.77-7.12,2.91-11.83,9.07-17.03,14.32-5.32-.96-10.56-2.03-15.77-3.18-2.11,4.29-4.1,8.61-6.12,12.9-5.55.65-11.02,1.49-16.42,2.49.5-5.24,1.07-10.49,1.68-15.73,2.49.61,7.39,1.84,9.88,2.45,2.33-13.86,17.84-4.36,23.16-15.24,7.62,4.13,12.79-2.6,17.99-7.27,24.19,8.42,47.85,25.8,56.69,50.72,14.12-10.56,32.04-7.92,47.89-3.33,7.77-.46,15.54-.77,23.43-.84-5.4-6.32-11.25-12.44-14.78-20.06-2.64-7.08,3.45-12.55,6.93-17.91,8.38-9.8,7.81-25.57,21.21-31.16-2.64-12.21,7.54-20.82,13.32-30.28,7.46-9.45,14.55-19.22,21.09-29.32,4.71.54,9.45,1.11,14.24,1.68,1.3-2.99,3.9-8.96,5.21-11.94,3.83,2.45,7.69,4.94,11.6,7.46,2.22-.15,6.7-.46,8.92-.57,3.67,2.83,7.43,5.7,11.22,8.57,9.99-2.76,19.9-6.01,29.86-9.15,1.49-7.77,4.06-16.73-1.57-23.54-7.69-5.82-17.49-7.69-25.72-12.48-6.01-15.81,10.45-23.04,23.27-23.39,2.6,4.63,5.13,9.34,8.31,13.7,5.47-1.45,10.68-3.83,16.19-5.4.8,4.4,1.61,8.88,2.3,13.36,11.06,3.18,22.62,5.66,32.46,12.02,4.82,2.22,9.72,4.4,14.58,6.78,1.53.11,4.63.38,6.2.54,4.71,4.1,10.18,6.58,16.61,5.63,6.12,8.46,14.47,11.14,24,5.63,1.84,4.21,3.75,8.46,5.7,12.67,12.36.23,21.82-8.27,32.54-13.17,10.56-4.71,20.02-11.52,30.39-16.61-3.02,3.56-6.24,6.97-9.68,10.07-4.21,4.56-8.34,9.15-12.33,13.86-14.66-4.06-19.64,15.16-32.42,14.55-13.67-12.78-33-14.05-49.57-21.17-13.74-4.13-26.03-11.52-39.01-17.42-9.72-1.76-18.76-5.93-28.02-9.03.11-2.6.38-7.81.5-10.41-1.26,1.23-3.83,3.71-5.09,4.94-3.67.31-11.06.92-14.74,1.26,7.85-15.31-15.92-16.57-17.19-3.75,4.56,1.8,9.38,2.83,14.24,3.98,11.25,6.93,16.73,18.6,21.05,30.58-5.89,5.74-10.99,12.25-16.96,17.91-9,2.79-18.87,6.74-28.21,3.33-6.93-2.83-12.33-8.27-18.14-12.71-7.39,4.48-14.51,9.3-21.67,14.09-1.53-1.26-4.56-3.75-6.09-5.01-4.78,9.07-10.37,17.68-14.28,27.18-4.36,3.75-8.88,7.31-12.9,11.41-1,5.86-.96,11.87-1.68,17.76-2.72,6.43-10.79,7.39-16.15,10.68,4.48,13.86-8.15,20.67-14.32,30.66,3.25,13.05,16.88,19.29,24.5,29.63-.19,7.62-.04,15.27-.88,22.85-7.23-1.42-7.92-9.19-10.6-14.58-7.35-1.42-14.74-2.76-22.01-4.06.42,190.89-.31,381.75.19,572.6,123.29.11,246.59-.15,369.88.04-.5-134.36.38-268.75.19-403.11.31-37.21-.88-74.41.69-111.58-7.35-3.48-15.16-5.51-23.23-5.67-14.81-15.62-28.94-32.77-48.69-42.34-6.35-4.44-18.14-6.16-17.53-16,9.95-15.12,22.12-29.17,28.29-46.47-1.57-9.99-3.98-19.94-7.69-29.32,6.7-6.09,15.08-9.42,23.43-12.67.15,3.06.46,9.15.57,12.21,4.86-4.21,9.61-8.46,14.47-12.71-1.19-1.8-3.6-5.47-4.78-7.31,4.02-8.73,10.49-15.85,17.11-22.74-7.77,1.61-27.02,6.89-25.26-6.62,2.03-3.1,6.05-9.26,8.04-12.33-6.35,3.75-12.13,8.04-18.37,11.87,1.65.96,4.9,2.91,6.55,3.87-2.53,3.06-5.97,5.21-8.84,7.69-1.53-5.67-3.14-11.29-4.82-16.84,16.73-3.02,23.04-21.67,38.97-25.8-4.36,5.59-9.3,10.76-13.7,16.23,2.91,3.6,5.97,7.12,9.15,10.6-3.87,2.14-7.66,4.36-11.41,6.66,5.55-.69,11.14-1.88,16.8-2.18,5.67,2.37,6.58,9.61,9.57,14.47-5.51,4.1-11.14,8-16.19,12.56,1.49,1.88,4.48,5.7,5.97,7.62-5.7,6.62-11.29,13.36-16.8,20.13l-2.45.92c-7.08-2.03-14.16-3.98-21.28-5.47,1.03,14.81,11.83,23.69,24.19,30.05-4.06.5-12.17,1.53-16.23,2.07-9.99,15.35-17.34,32.42-28.79,47.01,17.34,3.44,29.32,16.5,44.21,24.8,4.52,8.27,10.03,15.96,16.5,22.89,9.72-1.11,17.95,4.13,25.76,9.19,13.82,9.88,26.57,21.17,40.61,30.74,13.05,8.84,29.47,9.03,43.87,14.62,8.19,7.27,13.63,17.19,22.05,24.42-.19-7.39-1.91-15.35,2.6-21.9,10.49,5.01,4.94,14.55-.42,20.98,10.49,4.63,18.3,17.11,31.08,15.12,14.2-.77,29.93-10.37,30.01-26.07.27-11.87,11.94-17.72,17.38-27.06,2.6-15.66,5.13-31.43,10.14-46.55,3.48-9.76,11.6-18.37,9.8-29.44-2.83-24.38,3.75-49.3-3.67-73.07-1.72-6.97,3.83-12.78,6.43-18.76.57-12.21-.15-25.57,8.61-35.33-2.91-5.44-10.34-11.29-6.51-18.03,5.4-8.92,12.67-16.77,16.23-26.76M3618.05,808.4q2.33,2.37,0,0M3314.88,893.33q2.49,2.3,0,0M4660.2,1487.6c2.11,4.94,4.36,9.99,6.51,15.04-15.89.42-31.77-.61-47.62-.19-.57,2.72-1.72,8.15-2.26,10.87-2.41-.23-7.16-.65-9.53-.88-3.48,6.43-6.81,12.98-10.14,19.48-8.96,1.88-17.65,4.59-26.1,7.85-6.74-5.24-13.55-10.37-20.4-15.31-9.88,10.99-19.02,23.01-31.46,31.23-14.97-11.22-27.02,3.41-38.55,11.29-41.46-1.53-83.03.61-124.44-1.91-31.04,2.99-62.09-1.07-93.17-.34-2.07-5.7-4.06-11.41-6.09-17.03-49.19-.31-98.26-3.06-147.45-2.33-.38,92.9-.61,185.84-.73,278.74,21.7.04,43.37-.38,65.07-.11,15.35,17.72,33.8,32.92,46.47,52.94,14.7,4.29,21.97,17.91,32.31,27.79,10.41-.88,20.98-.88,27.67,8.73,19.1-5.44,38.43.11,57.72-1.88,16.92-4.29,31.12-17.95,49.84-14.55,1.68,3.02,3.44,6.09,5.24,9.15,5.59,3.6,10.03,8.38,11.94,14.93,1.57-.15,4.63-.5,6.2-.65-3.1-12.59-10.41-23.31-16.65-34.41,1.91-.11,5.7-.31,7.62-.42,6.55,11.64,14.43,23.27,15.12,37.13,2.76,2.07,5.59,4.17,8.5,6.28.31,1.91.88,5.67,1.19,7.58,12.67,5.13,19.75,17.26,27.22,27.98-2.45,2.72-4.86,5.36-7.27,8,15.5-9.99,24.88,11.41,40.35,10.49,4.94-17.42,5.47-35.75,11.41-52.94,4.94-19.71,14.51-37.74,24.73-55.2-3.9-2.11-7.69-4.17-11.48-6.2-2.91-4.13-5.82-8.23-8.77-12.29-2.18,3.25-4.1,6.66-5.7,10.22-6.66,3.1-9.49-3.64-12.52-7.89.11-2.53.27-7.58.34-10.11,16.96-.23,27.18,14.16,41.42,20.25,2.22-4.21,4.44-8.42,6.78-12.59.27-2.22.77-6.7,1.03-8.92,4.55-2.07,9.07-4.13,13.74-6.09-3.14-28.59,18.6-49.53,29.36-73.76,7.62-17,25.76-25,38.09-37.78,13.55-20.02,27.02-40.77,33.65-64.27-14.39,6.28-20.48,21.13-25.46,34.83-6.62-1.26-13.09-3.1-19.6-4.44-1.68-1.76-5.01-5.28-6.7-7.04-17.65,6.2-27.9-11.56-39.62-20.9-3.87-6.58-4.94-16.57-13.4-18.79-8.57-3.94-20.21-1.88-26.41-9.88,1.23-2.49,3.6-7.46,4.82-9.95-2.03-1.53-6.05-4.59-8.08-6.12,1.15-1.95,2.3-3.87,3.56-5.78,1.72.08,5.17.15,6.89.19,1.23,6.93,2.37,13.86,3.83,20.75,13.36,2.37,28.67,7.27,32.61,22.05,6.93,7.04,12.9,14.93,19.25,22.55,15.43-2.95,29.32,6.32,44.21,8.73,3.14-8.57,4.36-18.83,12.1-24.77,3.87-4.59,10.87-7.31,12.17-13.59,4.75-33.19,16.54-64.8,29.28-95.62,1.15-16.23-3.45-32.31-3.6-48.54-3.6-7.62-5.82-15.69-7.92-23.73l-7.12,2.14M4108.46,1830.5c.42,67.02-.15,134.05-.04,201.07,11.6-.57,24.34-3.1,34.87,3.37,14.2,7.92,26.53,18.76,40.31,27.41,16.08-11.98,30.32-26.3,47.24-37.17,1.38,8.15,3.71,25.57,16.54,19.22-3.98-6.24-8.96-11.79-13.78-17.26,4.98-3.44,9.95-6.97,14.97-10.45-1.91-4.71-3.83-9.45-5.59-14.12,7.47-1.88,15.01-3.83,22.39-6.32.15-2.33.5-7.04.69-9.38,2.22-1.53,6.66-4.56,8.88-6.05,13.28,3.98,27.45,4.25,40.65-.42,12.52,1.84,24.77-1.72,37.17-2.91,4.98-4.1,11.02-5.63,17.42-4.94,9.26,16.34,23.81,28.48,36.21,42.26,25-13.86,56.42-2.64,79.66-21.21-12.33-5.67-23.23-14.01-36.29-17.99-8.73-2.76-9.49-13.17-13.21-20.13-2.18-7.62-8.96-11.94-14.93-16.23-4.59-7.39-10.72-13.13-19.71-13.7-5.97-7.43-12.17-14.58-18.64-21.47-15.89,2.87-30.39,10.76-46.39,12.21-13.24,7.54-27.1-3.56-40.65,1.03-8.42,2.07-17.72,3.22-24.46-3.33-5.36-5.86-12.48-1.34-18.3.73-12.36-12.44-21.47-29.01-39.39-34.22-10.03-20.17-28.9-33.38-43.48-49.8-20.75-.46-41.46.08-62.13-.19M4306.25,1989.81c-10.56,2.49-21.17-.27-31.66-.96-3.37,11.83-12.02,21.82-25.38,19.37,9.07,7.35,20.79,14.35,22.2,27.22-8.38-4.59-16.57-9.65-25.88-11.94.65,7.43,1.38,14.89,2.22,22.39,4.71.23,9.61.57,14.47.88-1.76,4.59-3.44,9.22-5.01,13.89,23.35-.19,50.07,10.3,57.8,34.37-.5-10.99.38-22.09,5.09-32.12,11.67,1.42,22.28-2.99,32.58-7.92,12.13-16.77,28.94-28.56,46.74-38.62-9.11-10.22-18.33-20.4-29.13-28.86-.54-2.45-1.61-7.35-2.14-9.8-17.95,13.05-41.34,8.15-61.9,12.1M4222.65,2037.58q2.6,1.53,0,0M1947.21,603.11c5.67-1.22,11.52-.96,17.34-1.15,2.53,5.78,5.17,11.56,7.92,17.3,1.65,14.97,6.01,29.67,5.51,44.86,3.37,1.65,6.78,3.29,10.18,4.9,2.3,4.86,4.59,9.68,7.12,14.43.31,1.76.84,5.24,1.15,6.97,2.07,2.72,4.17,5.47,6.28,8.27-5.05,15.85,3.6,31.58,2.41,47.69-.5,17.03,3.94,33.49,13.82,47.46,3.94-3.29,7.85-6.66,11.71-10.07,4.36-.77,8.77-1.53,13.13-2.37,5.44,6.74,10.83,13.51,15.39,20.9,3.56,1.22,7.12,2.41,10.76,3.64,0,2.45.04,7.35.08,9.8,5.13,2.91,10.37,5.63,15.31,8.92-1.03,4.4-2.68,8.61-4.1,12.86,4.29,22.39,4.25,45.4,7.23,67.91,5.86,10.56,14.32,19.33,22.05,28.52.11,6.78-2.68,14.32,1.19,20.56,12.4,17.99,2.95,40.15,2.03,59.98,6.89,2.56,13.55,5.59,20.06,9.07-4.06.11-12.25.31-16.34.42,9.91,13.89,20.9,28.33,37.55,34.45,5.24-.84,10.41-2.14,15.5-3.83,1.26,10.26,5.44,19.64,15.2,24.31,3.56,7.66,8,15.04,16.19,18.45,3.02,3.64,6.12,7.23,9.38,10.76,2.18-1.34,6.55-3.98,8.73-5.32,4.4,1.72,8.88,3.52,13.32,5.32-.19,1.11-.57,3.41-.8,4.56-4.25,3.41-6.85,7.77-7.77,13.13,5.55,4.06,11.6,7.31,17.61,10.68-.96,5.17-2.11,10.34-2.37,15.66,3.83,5.7,9.57,9.8,14.62,14.43,3.45,9.11,9.8,17.53,9.45,27.71-.19,13.86,5.59,27.18,15.27,37.01.27-7.69.46-15.35.54-23.01,6.32,5.21,12.75,10.37,18.79,15.92,1.49-.54,4.4-1.53,5.89-2.07,2.07,5.82,4.9,11.29,8.57,16.34.96,15.89-4.86,31.31-2.64,47.31,8.04,7.16,16.19,14.24,24.27,21.4,1.61.19,4.86.57,6.47.77,6.97,13.09,21.09,20.86,24.54,36.17,1.88.65,5.59,1.99,7.43,2.68,8.04,12.98,13.82,27.33,23.5,39.31,6.66-9.57,8.8-21.24,11.18-32.42,1.68-.54,5.05-1.53,6.74-2.07-1.03,6.28-2.07,12.56-2.76,18.91-1.53,8.34-3.64,16.61-8.42,23.77,6.74,27.87-10.83,56.27.04,83.48-1.84,1.84-5.47,5.47-7.31,7.27-2.03-.69-6.12-2.11-8.19-2.83-.57,3.14-1.72,9.38-2.34,12.52-11.48.54-22.97,1.45-34.45.42-7.2,5.21-14.09,10.83-20.25,17.23-4.75,5.32-9.53,10.56-14.32,15.85-6.43,1.42-12.78,3.02-19.1,4.59-5.36-6.89-12.29-14.47-22.01-10.95-11.22,4.9-16.77,17.11-24.42,26.07-7.08-1.11-14.05-3.41-21.21-2.87-8.84,3.22-14.93,10.87-21.51,17.23-16.27-3.06-32.92-1.8-49.34-1.88-56.46-.15-112.96-.27-169.42-.11-.34-6.35-.57-12.63-.96-18.91-51.1-1.61-102.24-.15-153.34-.88.73-50.14.04-100.29.69-150.43-46.28.61-92.4-1.49-138.64-1.8.57-150.2.96-300.37,1.26-450.57-.04-24.19-1.61-48.54,2.87-72.42,2.07,3.71,4.06,7.5,6.05,11.29,10.68,5.36,20.4,12.29,28.94,20.63,11.33,10.49,26.14,15.62,40.73,19.87,3.22-6.66,4.86-14.78,11.1-19.45,7.85-6.62,18.91-4.59,28.36-4.78-10.26,8.73-22.12,15.46-31.5,25.23,10.95,10.34,20.29,22.35,31.77,32.12,16.77,10.14,38.89,1.91,52.56-10.03,1.72-7.01,2.07-14.32,4.17-21.24,4.29-6.74,10.72-11.98,14.51-19.06,1.72-9.91-1.49-20.86,3.94-29.86,6.7-12.48,9.65-26.45,15.46-39.27,3.22-6.05.73-12.82-.11-19.1-3.52-14.01,2.14-28.02,1.76-42.07-1.57-9.38-8.15-18.72-2.26-27.94,3.79-9.8,5.97-20.06,4.52-30.62,4.36-4.67,8.77-9.23,13.28-13.78-4.63-5.17-9.15-10.41-13.51-15.77,7.54-11.83,17.42-22.47,21.51-36.21,5.89-13.67,6.51-29.4,14.47-42.14M1475.89,632.2c9.84.19,14.2-8.65,19.67-15.2-1.49,5.82-3.22,11.56-5.01,17.3,2.07.77,6.24,2.26,8.31,2.99,1.07,1.76,3.18,5.24,4.25,7,7,.23,14.24.46,20.59,3.9,6.05,2.72,11.64,6.35,16.34,11.14,2.34.08,7.01.23,9.34.31,11.33,5.55,22.78,16,36.06,9.88,1.22,2.22,3.71,6.66,4.94,8.88,5.01-2.14,9.99-4.36,14.97-6.7,1.91,4.63,3.9,9.23,5.93,13.86,4.29-5.13,8.38-10.37,12.48-15.66,3.71,1.15,7.43,2.26,11.18,3.41-1.45-3.75-2.87-7.5-4.29-11.25,7.66-4.36,15.27-8.77,23.31-12.36-6.12,6.35-12.75,12.29-18.68,18.83,1.38,2.45,4.13,7.27,5.51,9.68,2.41.31,7.23.88,9.65,1.19.69,3.56,2.03,10.76,2.68,14.32,7.23-6.12,2.11-15.43,3.14-23.39,5.21-5.82,11.29-10.79,17.42-15.66-4.13,6.81-8.77,13.32-13.17,19.94,3.18.42,9.57,1.23,12.75,1.65.96,1.53,2.87,4.59,3.83,6.12,2.53,1.22,7.62,3.64,10.18,4.82-7.54,7.66-12.44,17.11-17.23,26.6.61,2.72,1.26,5.44,1.91,8.15-5.05,3.83-9.68,8.23-15.04,11.6-5.01-1.68-9.45-6.28-15.08-4.67-2.37,3.79-4.63,7.62-6.74,11.56,8.77,2.68,12.9,10.64,17.53,17.72-17.68,12.4-21.86,35.14-37.51,49.46.96,12.17,17.34,10.33,23.46,19.1,10.64,12.71,28.75,18.26,34.64,34.87,8.15,1.07,16.27,2.68,24.15,5.24-2.41,31.27-.73,62.62-1.11,93.97-.08,61.21-.5,122.45.04,183.7-3.9,81.19-1.65,162.61-2.18,243.91-33.99-1.65-67.91,3.79-101.78.15-89.88-.69-179.72-.42-269.55-.88-.04-191.7.27-383.36-.04-575.01,13.32-1.26,25.38,7.31,28.25,20.52,1.76-.27,5.32-.73,7.12-.96-.92-19.87-19.33-31.43-28.29-47.54,4.67-12.33,9.61-26.37,24.15-29.63-1.19-8.11-1.57-16.31-.61-24.46,6.66-2.83,14.2-4.94,18.18-11.56.19-4.67.23-9.34.11-14.01,9.11-3.94,11.71-13.09,13.24-22.05,3.56,1,10.68,3.02,14.2,4.06,4.48-6.62,8.5-13.55,12.78-20.29,12.75,10.72,28.63,19.06,45.67,16.84,1.53-1.68,4.63-5.05,6.16-6.74,5.67-.27,11.37-.27,17.03-.99,4.29-9.19,2.76-19.79,3.9-29.63-8.54-7.2-19.48-7.43-30.09-7.85-6.01-3.6-9.34-10.18-13.51-15.58,9.65-1.15,19.37-1.99,29.09-2.68,1.91,4.02,3.83,8.04,5.74,12.06M1632.83,827.92q2.3,2.53,0,0M3642.2,621.98c12.56,7.46,28.02,5.86,40.8-.08,10.14-4.67,21.32,2.99,20.94,14.05,3.1,13.97-13.97,17.88-22.55,24.31-3.52-3.06-6.97-6.16-10.37-9.23-11.71,1.23-25.57,9.65-36.21.96-3.37-9.15.34-18.87,1.11-28.06,7.2,6.51,8.88,14.74,3.22,23.58,5.21,1.68,10.03-.54,14.78-2.64,10.72,1.57,21.4,3.52,32.31,4.25,9.3-4.52,14.7-18.56,2.18-23.12-10.6,6.32-22.97,7.23-34.49,10.72-2.07-.57-6.28-1.76-8.34-2.33-1.19-4.13-2.3-8.31-3.37-12.4M1363.7,623.74c10.34-.65,18.68,4.75,23.2,14.09.65-3.37,1.95-10.11,2.6-13.51,13.47.77,27.02,1.57,40.54.23.19,6.89.96,13.93-.73,20.71-5.21,8.04-14.2,12.36-22.43,16.65-1.15-1.57-3.41-4.71-4.56-6.28-8.27-.69-16.46-1.57-24.65-2.68-5.17.27-15.31,6.81-13.97-2.91-.92-6.05,5.78-9.84,8.08-14.89-2.18-4.17-5.13-7.81-8.08-11.41M3938.2,645.79c3.1-2.45.84-20.75,8.04-13.63,8.15,4.86-3.06,11.94-8.04,13.63M3925.65,758.25c2.83-5.78,6.16-19.75,15.54-14.05,9,9.03,14.16,22.32,15.31,35.02-2.95-1.72-5.78-3.48-8.61-5.24-2.07-3.79-3.67-7.77-4.82-11.9-.69-3.22-1.99-9.68-2.68-12.9-2.26,2.41-6.85,7.2-9.15,9.61-1.38-.15-4.17-.42-5.59-.54M1668.96,785.5c-13.78-10.6-12.67-34.18,4.44-40.5.23,2.68.73,8.04.96,10.72,2.68,2.87,8.08,8.69,10.76,11.6-2.95.11-8.88.42-11.83.57.19.96.57,2.87.73,3.87,5.86-1.76,12.17-4.02,14.28,3.87-6.39,3.41-12.56,7.27-19.33,9.88M1189.38,775.55c12.33-2.14,23.92-6.43,32.46-15.96,20.56,12.75,37.63,30.09,55.08,46.66-5.89,13.21-14.78,27.18-7.96,41.99,1.65-4.52,3.22-9.11,4.78-13.63,6.05-10.26,12.17-20.48,19.37-30.01,8.77,3.29,17.34,7.04,25.84,11.06.54,284.6-.15,569.23.46,853.87-30.43,5.44-56.15,24.77-86.47,30.81-15.31,2.37-30.32-3.06-45.51-3.79-28.17,19.64-57.61,38.01-89.46,51.06-4.21,17.99-12.17,37.05-30.05,45.24-9.61-1.03-19.71-7.2-27.52,1.76-7.27-6.66-15.54-5.28-23.62-1.11-16.23-9-34.95-3.71-52.52-3.98-13.21-.65-24.8,7.58-37.93,7.43-7.2.34-16.65-.54-20.59,7.04-1.84,6.43-2.41,13.24-4.71,19.56-6.12,7.58-17.19,4.33-25.68,5.7-12.33,7.04-25.15,13.47-34.41,24.54-12.59,1.88-24.84,5.36-37.32,7.62-9.34-1.53-16.92-8.61-26.49-9.26-6.55-.23-13.13,0-19.64-.19-13.74-9.72-24.35-23.2-36.59-34.64-6.85-3.87-15.62-1.45-23.12-2.03-3.18-14.28-3.44-28.94-4.44-43.48,6.39,3.29,12.94,10.64,20.59,6.39,7.2-9.07,9.65-21.28,7.62-32.54-1.53-14.43-11.94-30.2.23-42.83,2.18-33.07-29.28-54.05-37.44-83.56,2.03-19.87-7.81-38.01-7.69-57.68-.34-13.74-9.34-25.11-15.77-36.59-5.59-10.91-16.77-17.38-22.81-27.83-1.19-11.52,1.8-23.69-2.95-34.68-8.92-22.78-27.18-40.08-37.86-61.9-6.78-14.2-18.6-26.53-19.33-42.99,11.87,4.52,10.6,19.64,18.53,27.98,8.19,9.38,14.24,23.77,27.29,26.72,4.82-8.15-8.46-11.83-10.18-19.14-1.61-7.39-8.19-16.88-1.88-23.35,6.16,9.88,10.26,20.98,17.61,30.12,14.51-3.64,3.52-21.05-.84-29.55-10.11-23.01-32.46-42.45-30.2-69.32,4.02-13.24,9.57-25.99,15.58-38.43-3.56-11.29-9.19-22.2-9.72-34.14,4.59-13.4,9.68-26.64,13.78-40.19,2.14.38,6.39,1.15,8.54,1.53,1.22,11.71-.38,23.39-2.11,34.99,2.26-.31,6.78-.92,9-1.22,1-8.57,2.03-17.07,3.48-25.53,8.61-4.71,16.61-10.72,20.82-19.87,9.15-5.63,18.87-10.18,28.75-14.28,17.26-9.57,27.18-32.04,48.73-33.49,5.59-1.19,10.6-4.06,16-5.93,10.56-5.24,20.86,8.61,31.23,2.41,12.71-6.97,28.48-10.11,37.21-22.66,12.56-3.71,25.8-4.67,38.12-9.19,3.41-4.52,5.97-9.61,9.3-14.2,5.74.8,11.22,2.95,17,3.48,27.9-6.81,55.69-16.54,79.04-33.68,6.32-4.63,7.04-13.17,9.84-19.98,4.52-15.35,13.7-29.05,25.99-39.23,4.48-4.71,13.97-9.26,9.22-17.07-7.5-13.66-10.99-29.78-5.97-44.94,3.79-6.09,11.6-7.35,16.73-11.83,5.28-9.57,11.6-18.49,18.72-26.76,3.75,10.95,9.49,21.02,15.2,31.04,5.13,8.69,4.98,20.48,14.16,26.45-.65-13.4-1.95-26.76-.73-40.12-5.7-8.15-12.98-17.19-4.59-26.26,10.18,6.09,21.21,10.49,32.31,14.58,6.93.42,13.86.84,20.78,1.26-7.27-8.38-13.47-17.61-16.73-28.29,2.26-7.35,2.14-15.23-.38-22.51,9.3,1.95,6.81,10.6,6.66,17.49,2.41.96,4.82,1.95,7.27,2.95.11-2.03.31-6.12.42-8.19,2.41.54,7.23,1.61,9.68,2.14l-.11-2.14c-4.59-1.88-9.11-3.83-13.51-6.01,2.95-1.19,8.84-3.6,11.79-4.78-5.28-2.14-10.56-4.33-15.81-6.51,4.17-2.53,8.42-4.9,12.25-7.96.8-1.65,2.41-5.01,3.22-6.7,2.37.11,7.16.34,9.57.46,1.61-1.42,4.86-4.25,6.47-5.66,5.74-.46,11.6-1.15,16.46-4.59,1.61.31,4.86.92,6.51,1.26-.77-1.26-2.26-3.79-3.02-5.05-7.81-1.19-24.5,4.82-21.7-8.19,4.29-1.45,8.61-2.76,13.01-3.9-1.38-6.35-3.37-12.94-.19-19.1,1.34,2.6,4.02,7.81,5.36,10.37.92-2.14,2.76-6.47,3.67-8.65,2.3,1.91,6.89,5.74,9.19,7.66,2.11-5.74,3.67-11.67,4.4-17.72,4.52,7.08,10.79,12.63,17.95,17.03.8-5.21,1.57-10.45,2.3-15.66M3926.15,765.03c4.75-1.22,11.37,1.45,11.37,7.2-2.41,8.31-14.35-1.57-11.37-7.2M3422.52,786.88c1.88-1.99,5.63-5.97,7.54-7.96.88,7.46,2.03,14.93,3.25,22.39-2.6-.31-7.85-.92-10.49-1.22.38,2.45,1.11,7.35,1.49,9.84-2.3-.46-6.97-1.3-9.26-1.76-4.02,2.95-7.66,6.28-10.87,10.03,2.26,1.22,6.77,3.64,9.03,4.86-1.65,1.57-4.98,4.71-6.66,6.24,2.83,1.15,8.5,3.37,11.33,4.48-7.77,1.8-15.43,3.71-23.08,5.78-1.95-1.49-5.89-4.44-7.89-5.9,4.82,7.08,8.92,14.66,12.02,22.7-5.7-.11-11.37-.27-17.03-.5,1,6.93,1.95,13.93,2.91,20.94,6.7,3.56,12.78,8.23,16.92,14.78-19.94,12.06-43.14,2.14-61.44-8.04-.5,2.76-1.49,8.27-1.99,11.02,4.86,4.48,9.49,9.03,14.2,13.86-3.37,1.11-6.85,1.76-10.34,1.42-1.22.8-3.64,2.45-4.82,3.29-3.79-13.28-6.7-27.83,2.18-39.81,12.71,7.2,25.3,15.04,39.73,18.37-6.05-14.09-8.73-29.13-13.32-43.64,8.08-.15,16.15.23,24.31.69-4.33-3.41-8.65-6.74-12.9-10.07,7.46-7.35,13.59-17.03,24.31-20.02.19-1.95.54-5.82.73-7.73,2.26-.96,6.78-2.87,9.03-3.83-1.99-1.65-5.97-4.9-8-6.55,5.63-5.78,8.54-18.83,19.1-13.67M3373.75,853.87c1.3,12.78,11.02-6.47,0,0M3386.54,892.68c5.67-2.68,5.82-5.78.46-9.38-5.78,2.53-5.93,5.67-.46,9.38M3936.79,779.65c4.59-2.37,10.11,1.22,12.79,5.09-1.95,6.85-18.07,1.8-12.79-5.09M3963.7,842.16c4.48,1.49,11.14,2.72,9.34,9.23-2.41.77-7.16,2.26-9.57,2.99.08-3.06.19-9.15.23-12.21M4064.94,891.76c7.5-5.78,23.39-4.82,22.93,7.27-8.92,8.34-21.55,10.07-33.19,10.99,2.72-6.28,3.83-14.35,10.26-18.26M4067.51,900.68c4.98,1.91,9,.65,11.98-3.83-.88-6.85-15.43-2.41-11.98,3.83M3337.7,918.1c5.24-3.22,11.25-4.52,17.38-5.24-.31,4.21-.92,12.67-1.22,16.92-5.55-3.71-10.95-7.58-16.15-11.67M1805.5,929.24c.27-6.35,11.64-7.23,12.21-.57-.23,6.39-11.41,6.85-12.21.57M670.56,1144.67c5.82-1.99,11.67-3.87,17.57-5.63-3.67,3.75-6.74,8.08-10.33,11.9-1.8-1.57-5.44-4.71-7.23-6.28M2956.37,1153.24c.5-5.4-.69-12.21,6.09-14.09,10.53.38,4.02,9,2.3,14.74-2.11-.15-6.28-.5-8.38-.65M4541.58,1204.76c7.81,3.9,15.04,8.96,22.43,13.7-.19,4.59-.38,9.22-.5,13.86-7.73-8.61-22.24-13.97-21.93-27.56M1322.97,1391.6c169.61.5,339.22.19,508.83.84-.15,120.35-.69,240.69-.54,361.04-.15,63.5.19,127.04-2.64,190.43.38,29.7-1.8,59.48.54,89.11.92-1.07,2.79-3.18,3.75-4.25-1.72-54.85.08-109.86-.19-164.79.27-11.94,1.65-23.81,2.22-35.71,21.82.46,43.68-.11,65.53.19,7.69,21.47,31.58,30.05,40.19,51.06,17.49,3.87,24.84,20.82,37.13,31.77,5.09,4.52,11.33-.92,16.61-2.18,11.06,14.43,28.98,6.35,44.21,7.08,15.92,1.38,33.15.69,47.35-7.46,6.89-.5,13.63-1.91,20.4-3.1,9.45,5.59,17.07,13.89,25.65,20.82,3.33,5.24,9.11,5.74,14.81,6.28,6.89,12.59,20.67,20.4,23.96,35.14.61-3.9,1.8-11.67,2.41-15.54,3.52,4.82,6.78,9.95,9.57,15.35-2.87.65-8.65,1.91-11.52,2.56,4.9,1.53,9.84,2.91,14.85,4.29,6.85,8.54,15.43,15.46,25.45,19.98-7.2,6.39-14.39,13.78-24.23,15.73-13.17,1.72-26.56-.61-39.66,1.57-8.04,2.53-15.66,6.05-23.43,9.07-10.3-16.73-27.22-28.06-36.33-45.7-10.18,4.21-20.67,9.65-32.04,8.34-19.67-4.33-39.5,5.51-58.91-2.45-1.99,5.09-3.98,10.11-5.86,15.23-6.55,1.53-13.09,3.06-19.64,4.52,1,8.65,2.07,17.26,3.06,25.95-7.16-2.33-14.28-4.44-21.51-6.28,1.61,6.85,3.18,13.7,4.67,20.67-8.77,1.22-20.06-3.37-26.53,4.59-8.15,6.85-14.55,17.42-25.19,20.36-17.65-10.91-34.53-23.04-51.56-34.76-8.73-5.55-15.66,3.22-20.71,9.11-3.14-2.11-6.16-4.33-9.19-6.39-5.97-7.08-12.9-13.24-20.21-18.79-3.83,1.68-7.69,3.22-11.64,4.56-22.55-15.66-33.15-41.57-46.01-64.65,2.37-6.2,6.01-11.87,7.77-18.3-2.41-13.01-4.94-27.94-17.15-35.48-.69-1.68-2.07-5.13-2.76-6.81-2.6-3.29-9-5.09-7.96-10.07,4.86-6.58,11.44-11.98,14.55-19.71-6.58,2.76-12.67,6.58-18.83,10.14,3.41-5.36,6.62-10.79,9.68-16.31-13.17,7.5-24.61,18.95-39.89,22.05-8.15,2.03-17.49,3.44-21.97,11.52-9.88,16.27-32,9.99-47.89,11.87-4.1-3.6-8.12-7.23-12.13-10.87,7.77-5.13,16.54-8.42,24.92-12.4,10.83-.65,22.09-2.56,32.46,1.88,20.17-5.17,31.5-26.03,33.57-45.55-3.25-10.49-9.91-19.41-16.27-28.13-5.97,17.07-14.09,33.3-22.09,49.49-11.56.46-23.23,0-33.68,5.86,1.57-5.4,3.29-10.72,4.98-16.08,7.96-2.11,18.53.34,23.89-7.23,2.03-11.6.38-23.54,2.87-34.99,7.89-9,17-17.8,14.74-31.04,3.64-4.33,7.35-8.61,11.06-12.86-3.14-3.33-6.05-6.81-8.77-10.45.77-9.53,3.98-18.72,5.28-28.13-6.01,6.39-11.18,13.55-16.08,20.86.15,5.13.31,10.33.46,15.5-9.19,8.61-14.74,20.9-25.76,27.48-19.6,11.33-29.21,33.15-39.35,52.36-4.67,7.89,3.87,15.66,5.24,23.39-10.03-.88-14.58-9.45-20.63-15.89-6.51-3.37-21.55-2.83-17.99-13.89,4.86-14.97,16.34,1.53,21.67,7.92-10.45-16.23-19.41-33.84-21.4-53.28-5.89-5.24-13.21-8.46-19.98-12.33,1.42-7.39,2.72-14.85,3.87-22.28-7.54-.08-18.11,9.68-22.43.19-6.78-7,5.47-14.09,4.36-21.9-.73-5.89-1.61-11.75-2.33-17.61-4.59,2.3-9.15,4.59-13.67,6.93-1.23-1.76-3.67-5.32-4.9-7.08-6.97-4.4-11.1-11.71-17.38-16.65-5.17,1.45-9.57,5.51-15.08,5.32-10.49-1.3-14.16-14.55-23.69-17.11-7.46,2.03-14.55,5.32-22.01,7.31-10.87-10.87-20.56-24.54-35.25-30.28-25.8,3.52-51.75,7.81-77.97,5.63.46-92.17.19-184.39.23-276.6M2391.96,1487.72c4.33-1.07,8.65-2.26,12.98-3.48,2.91,22.97,6.97,46.2,4.71,69.4-11.18,23.35-19.56,47.96-24.77,73.34-2.18,12.82-8.19,25.95-3.79,39.01-8.08,22.66-26.6,41-29.86,65.46-11.02,6.39-24.15,10.37-32.42,20.63-18.49,24.96-41.49,50.91-38.97,84.33-14.51,8-20.25,23.92-28.59,37.21-6.24,16.19-16.46,30.62-21.36,47.39-8.42,22.51-10.14,46.74-17.23,69.63-9.8-6.51-18.41-14.47-26.95-22.47-2.18-19.37-29.13-17.68-30.89-36.94-4.13-2.3-8.38-4.56-12.52-6.62-4.9-13.4-8.27-27.48-15.92-39.66,1.72-2.64,3.44-5.24,5.21-7.81-3.9,3.6-7.89,7.16-11.83,10.72,8,11.67,17.07,23.35,16.8,38.47-12.86-8.54-20.36-34.53-39.54-27.56-10.87,2.41-20.79,7.58-30.74,12.33-19.02.11-38.09.19-57.07,1.19-6.32-2.91-12.02-6.85-17.95-10.3-2.22,1.8-6.66,5.4-8.88,7.16-13.05-11.1-19.75-30.05-38.7-32.61-8.5-21.32-32.38-30.62-40.69-52.33-22.78.15-45.55-.31-68.33.19-.11-93.21.77-186.41.61-279.62,49.68.19,99.41.31,149.09.19.11,6.35.31,12.75.46,19.18,63.12-.08,126.24-.11,189.4.08,12.06-.19,23.96,2.11,35.91,3.41,5.74-5.63,11.14-11.71,17.65-16.5,9.3-1.91,21.51,6.2,28.4-2.87,8.5-8.38,13.44-22.47,27.18-23.16,5.21,4.17,9,13.01,17,11.83,12.59-2.14,28.21-5.86,30.89-20.71,1.99.08,6.01.23,8.04.31,2.18-4.52,3.06-10.07,7.2-13.32,13.05-1.65,26.26-1.65,39.39-1.99,2.07-4.48,4.06-9,6.09-13.47M2235.25,1614.19c2.45,3.1,4.9,6.2,7.39,9.34.15,5.4-2.26,11.94,2.3,16.27,8.38,9.88,24.15,4.48,33.53,12.63,5.4,11.79,10.37,25.95,25.26,27.98,3.52,3.29,7.04,6.7,10.53,10.14,5.51-.38,11.06-.8,16.61-1.19,5.36,2.99,10.76,5.89,16.19,8.8,5.01-.88,10.07-1.68,15.16-2.49-16.69-3.79-32.42-11.02-49.42-13.4-8.5-4.21-16.12-9.99-23.89-15.31-1.72-6.97-2.37-15.58-9.07-19.79-9.8-5.47-22.28-4.13-31.69-10.26-.11-6.24,1.07-12.44.77-18.68-4.55-1.57-9.11-2.91-13.67-4.06M2125.62,1838.5c2.72,11.52,11.33,19.94,19.64,27.79-2.83,1.65-8.5,4.94-11.33,6.58,6.2.34,12.25-1.15,18.03-3.44-4.55-5.93-9.15-11.79-14.16-17.26-.88-7.62-2.72-15.31-12.17-13.67M2214.31,1850.55c.23,1.99.69,5.93.92,7.92,3.64-.04,7.31-.04,11.02,0,7.58,6.2,15.58,11.87,23.46,17.72-.31-4.55-.92-13.63-1.19-18.18-4.56,1.07-9.03,2.45-13.44,3.98-4.48-4.1-9-8.11-13.32-12.29-1.88.23-5.59.65-7.46.84M3787.27,1740.31c-3.52-5.66-3.06-12.98.54-18.49,4.29,14.35,19.33,11.98,30.93,14.58-.19,8.69-1.42,17.3-3.79,25.68,7.31,4.17,15.08,7.62,22.12,12.36,10.22,19.37,19.22,39.81,24.11,61.32,5.4,1.65,10.91,3.22,16.5,4.71,4.55-18.56,13.13-36.17,25.42-50.87,7.46-8.57,20.33-8.96,28.33-16.84,9.3-11.52,11.79-26.68,18.72-39.43,4.75-4.94,8.27,2.34,11.45,5.21-3.52.8-6.97,1.61-10.3,2.37,13.63,7.04,12.44,24.61,4.67,35.83-9.53,16.88,8.04,29.63,14.62,43.48,7.62,13.97,23.08,29.17,12.25,45.86-2.91-1.65-5.74-3.29-8.54-4.9,11.52-13.13-6.09-27.48-9.88-40.54-4.86,17.53-9.95,36.98-26.72,46.97-3.41-4.44-5.82-9.57-5.97-15.2-.8-3.29-1.72-6.47-2.68-9.65-4.02,1.53-12.1,4.63-16.15,6.16l.19,4.48c2.6.15,7.81.5,10.41.69-.46,1.76-1.3,5.32-1.72,7.08-7.54.08-15.04.19-22.51.19,2.68-6.93,5.36-13.86,7.96-20.82,8.84-.77,17.68-1.76,26.6-2.11-3.71-15.01,4.44-27.83,11.02-40.38,2.87-12.9,4.82-26.26,12.29-37.59-1.88-4.44-3.71-8.84-5.47-13.24-5.67,12.02-10.37,25.34-21.13,33.88-7.43,6.12-18.14,6.55-24.96,13.36-12.4,15.01-19.14,33.76-22.01,52.82-6.78-.73-13.47-1.26-20.13-1.61,4.29,10.95,14.28,9.53,23.5,9.07v7.16c-6.93-.31-15,3.45-20.86-1.3-2.41-5.44-2.68-11.52-3.94-17.15-3.79,1.53-7.5,3.22-11.1,4.94-3.64-2.64-6.85-5.86-9.19-9.61,2.26-4.82,5.78-8.92,8.5-13.51-2.26-10.56-6.81-20.86-13.78-29.17.65-2.18,1.95-6.51,2.6-8.69-2.6.84-7.77,2.53-10.33,3.37.15-4.56.31-9.11.42-13.59-6.32-4.63-15.85-5.93-19.29-13.63-.23-8,1.34-15.89,1.95-23.81-8.23,0-16.57,2.56-24.65.54M3946.82,1804.39c-10.64,10.72-5.89,26.79-6.58,40.19-2.33,3.75-4.25,7.62-5.78,11.71-.04,1.3-.12,3.87-.15,5.13,14.51-11.56,20.52-29.97,25.19-47.2-2.49-5.36-5.21-15-12.67-9.84M3855.26,1839.91c4.78-2.49,4.78-5.21-.08-8.08-4.94,2.53-4.9,5.21.08,8.08M1549.84,1797.31c5.47-1.49,7.23.38,5.32,5.67-5.44,1.49-7.23-.42-5.32-5.67M4397.89,1834.67c4.02,1.22,8.08,2.56,12.13,4.02-.23,14.85,17.57,20.82,17.3,36.06-7.69-.42-14.47-3.94-20.63-8.19,3.02-.46,9.07-1.42,12.1-1.91-10.56-7.08-18.41-17.38-20.9-29.97M3975.33,1874.06c12.98-3.71,25.72-14.78,39.77-10.56l3.29,4.82c-3.25,3.22-9.8,9.61-13.05,12.78.96-3.37,2.91-10.07,3.9-13.44-19.94,7.77-39.2,18.6-61.21,18.68-2.41,19.67-25.57,19.22-40.5,21.28-8.69,1.19-24.11-3.67-20.17-15.01,6.24-9.03,18.03-9.91,27.87-12.25,10.45-1.91,23.5-6.7,31.31,3.79,7.81-6.2,16.92-10.76,23.77-18.22,1.65,2.68,3.29,5.36,5.01,8.11M3892.38,1895.26c9.3,9.95,23.24,4.36,34.95,3.48,7.27-.31,13.13-5.59,11.45-13.32-15.66,1.95-32.42,1.72-46.39,9.84M2059.59,1988.85c9.42.65,18.07-3.6,26.26-7.73,7,10.76,14.55,21.47,25.45,28.63,1.95,4.94,3.87,9.91,5.17,15.08-13.09,7.12-25.53,15.16-34.03,27.71-16.8,5.24-31.35,15.77-41.76,30.01.88,6.09,6.89,12.9,2.79,18.72-8.54-.57-10.07-10.26-13.93-16.11-1.53-1.38-4.67-4.13-6.24-5.55-1.03-5.59-2.3-11.18-3.52-16.69-6.09,3.37-12.17,6.74-18.3,9.99-2.49-3.44-4.82-6.78-7.16-10.18,5.86-2.14,11.71-4.29,17.61-6.39-3.98-1.95-7.96-3.87-11.98-5.67-.34-3.67-.65-7.35-.92-10.95-5.44-5.09-11.06-9.91-17-14.28-2.26-5.05-6.51-9.53-6.58-15.23,3.79-4.78,10.11-5.7,15.54-7.81,3.29-4.56,6.43-9.26,10.18-13.47,19.52,1,38.93-1.72,58.41-.08M1979.59,2033.68c4.02.27,8.04.77,12.06,1.49.73,7.27,1.26,14.62,1.15,22.01-5.97-.15-12.06.46-17.88-1.11-6.74-7.16-2.14-17.19,4.67-22.39M4268.85,2043.32c7.69-3.71,26.18-10.11,23.85,5.09-3.94,5.44-9,9.95-13.63,14.74-5.17-5.67-7.89-12.71-10.22-19.83M4276.35,2047.61c.15,6.89,11.29,5.89,11.83-.34-.27-6.7-11.75-6.12-11.83.34M1927.07,2119.46c3.18-3.1,6.47-6.12,9.76-9.15,4.82,4.82,13.01,9.45,9.8,17.61-.23,6.16-6.89,10.53-12.33,6.7-2.91-4.78-4.9-10.14-7.23-15.16M4210.74,2139.36c-5.44-7.43-16.73-21.24-3.67-27.18,9.03-4.4,13.01,7.54,17.95,12.56-4.21,5.4-9.03,10.26-14.28,14.62M4208.52,2118.19c-4.59,3.71,1.23,12.29,6.28,8.57,4.59-3.79-1.34-12.29-6.28-8.57M4368.18,2114.48c10.22,8.23,17.72,19.45,23.69,31.04,3.79,7.35-2.72,16.65-10.87,14.81-9.76-6.2-15.58-17.07-18.49-27.94,1.26-6.16,3.52-12.06,5.67-17.91M4385.33,2155.82c1.84-12.75-7.5-22.09-14.43-31.31-4.33,12.82,3.48,24.96,14.43,31.31M2084.43,2131.52c2.68-4.75,5.4-9.45,8.23-14.09,9.57,12.44,17.99,25.65,21.93,41.03-17.3,4.56-21.44-16.96-30.16-26.95M4189.23,2129.83c1.65.04,4.98.15,6.66.19,2.45,7.12,4.94,14.28,8.11,21.21.23,1.3.65,3.9.84,5.24-3.9.15-7.77.34-11.56.54-2.6-8.84-3.56-18.03-4.06-27.18M1920.11,2153.49c-5.05-7.62-2.11-15.96,1.57-23.43.15,7.08,11.37,23.62-1.57,23.43M1950.15,2175.23c5.74-3.1,11.41-6.32,17.07-9.61,12.94,17.91,35.71,19.02,54.16,27.9,19.22-1.65,39.85-4.56,56.12-16.15,6.85-7.08,15.16.27,22.55,2.3,2.22,5.47,4.44,10.99,6.62,16.57-3.87,13.7,2.49,30.55-8.73,41.53,2.3,4.98,4.71,9.99,7,15.04-2.45.96-7.35,2.83-9.8,3.79-4.21,9.11-3.25,18.91-2.64,28.59-3.48,9.26-7.69,18.26-11.9,27.22,1.76,4.25,3.48,8.54,5.13,12.9-8-3.83-15.96-9.88-8.77-19.22-3.67-3.18-7.23-6.43-11.18-9.19-1.07,6.62-1.8,13.32-2.26,20.06-3.52-2.76-7.04-5.51-10.53-8.23.15,3.18.5,9.57.65,12.78-1.88,1.07-5.59,3.22-7.43,4.33.19,6.16.38,12.36.57,18.6-3.94-3.41-7.77-6.93-11.52-10.41-4.48,5.55-8.61,11.45-9.49,18.79-1.3-.19-3.9-.54-5.21-.69-4.21-8.15-11.25-12.4-20.48-11.6-1.57-12.78-12.17-20.67-17.49-31.62-7.46-14.01-13.32-28.94-16.88-44.44,9.03-4.98,11.02,9.38,16.84,13.89-5.09-22.78-19.87-41.95-30.97-62.05-2.41-13.55-.23-27.45-1.45-41.11M4237.88,2172.63c1.22-1.15,3.6-3.44,4.79-4.63,17.65,15.62,41.76,21.21,63.89,27.45,20.9-6.05,42.14-12.9,61.09-24,10.49,6.2,20.29,16.61,20.44,29.51,2.14,18.64-1.84,37.09-4.29,55.5-1.49.23-4.55.69-6.05.96-.73,5.21-1.34,10.56-2.22,15.81-1.68,9.22-3.98,18.34-6.62,27.37-2.49,3.37-4.9,6.78-7.2,10.26,1.57,4.44,3.37,9.07,4.94,13.59-2.26.27-6.81.73-9.11,1,.31-2.68.88-8.04,1.15-10.72-19.22,4.86-18.95-21.67-9.19-31.04.8,8.54,0,17.11.04,25.72,3.6-2.41,7.23-4.86,10.91-7.35-1.72-3.79-3.37-7.58-4.94-11.33,2.37.5,7.16,1.45,9.53,1.95,3.9-13.59,5.59-27.71,9.45-41.26,1.72-1.15,5.17-3.41,6.89-4.56-1.11-2.83-3.29-8.5-4.4-11.33,2.45-3.22,4.98-6.39,7.54-9.49-1.68-7.35-3.48-14.97-.23-22.12-4.36-9.38-8.5-19.02-16.23-26.14-9.23,7.58-20.1,12.4-31.62,15.16-12.36,2.91-24.04,11.45-37.17,8.38-22.32-5.32-41.99-18.79-64.84-22.12-8.34,24.5,1.23,49.76,16,69.51,6.28,14.09,25.19,15.5,29.21,31.35-7.85-8.84-19.33-11.22-30.01-14.55-2.41,23.92,13.9,45.17,27.75,63.35,4.13,8.8,14.2,10.37,22.32,13.78,1.49-2.37,4.48-7.08,5.97-9.42,4.52,1.22,9.07,2.3,13.74,3.48,3.87-10.6,7.43-21.32,10.26-32.23,3.41,1.34,6.93,2.72,10.34,4.44-1.61,1.72-4.82,5.17-6.43,6.93.46,4.25,1.03,8.54,1.68,12.86-1.76.77-5.28,2.37-7.04,3.18-3.37,7.62-8.23,14.43-13.4,20.9-11.87.84-22.05-5.24-32.61-9.42-8.57-12.17-21.55-21.36-26.49-35.79-4.9-12.44-14.2-23.54-15-37.28,2.49-3.9,5.21-7.62,8.15-11.18-6.7-12.4-15.31-23.77-20.63-36.86-7.12-16-2.91-33.8-1.42-50.45,2.76.23,8.31.65,11.06.84M4307.51,2342.73c.42,12.98,11.37-6.32,0,0h0Z"/>
</svg>